<svg width="77" height="77" fill="none" xmlns="http://www.w3.org/2000/svg"><path d="M66.85 73.4h-56.7a9.02 9.02 0 0 1-9.02-9.03V22.26a9.02 9.02 0 0 1 9.02-9.03h56.7a9.02 9.02 0 0 1 9.02 9.03v42.1a9.02 9.02 0 0 1-9.02 9.03Z" fill="#FF573D"/><path d="M66.85 13.23h-4.51a9.02 9.02 0 0 1 9.02 9.03v42.1a9.02 9.02 0 0 1-9.02 9.03h4.5a9.02 9.02 0 0 0 9.03-9.02V22.26a9.02 9.02 0 0 0-9.02-9.03Z" fill="#E64028"/><path d="M52.79 50.63a14.29 14.29 0 1 1-28.58 0 14.29 14.29 0 0 1 28.58 0Z" fill="#FFD659"/><path d="M38.5 36.35c-.77 0-1.52.06-2.26.17a14.29 14.29 0 0 1 0 28.22 14.29 14.29 0 1 0 2.26-28.4Z" fill="#FFBD54"/><path d="M28.72 34.29a4.51 4.51 0 1 1-9.02 0 4.51 4.51 0 0 1 9.02 0ZM57.3 34.29a4.51 4.51 0 1 1-9.02 0 4.51 4.51 0 0 1 9.02 0ZM43.01 28.88a4.51 4.51 0 1 1-9.02 0 4.51 4.51 0 0 1 9.02 0Z" fill="#FFD659"/><path d="M24.21 29.78c-.82 0-1.59.22-2.25.6a4.5 4.5 0 0 1 0 7.82 4.51 4.51 0 1 0 2.26-8.42ZM52.79 29.78c-.82 0-1.6.22-2.26.6a4.5 4.5 0 0 1 0 7.82 4.51 4.51 0 1 0 2.26-8.42ZM38.5 24.36c-.82 0-1.6.22-2.26.6a4.5 4.5 0 0 1 0 7.82 4.51 4.51 0 1 0 2.26-8.42Z" fill="#FFBD54"/><path d="M46.02 50.53a2.24 2.24 0 0 1-2.26 2.26h-3v3a2.26 2.26 0 0 1-4.52 0v-3h-3a2.26 2.26 0 0 1 0-4.51h3v-3.01a2.26 2.26 0 0 1 4.52 0v3h3a2.26 2.26 0 0 1 2.26 2.26Z" fill="#89CEEA"/><path d="M56.7 10.18v8.24a2.26 2.26 0 1 1-4.51 0v-8.24a4.54 4.54 0 0 0-4.55-4.54H29.36a4.54 4.54 0 0 0-4.55 4.54v8.24a2.26 2.26 0 1 1-4.5 0v-8.24c0-5 4.05-9.05 9.05-9.05h18.28c5 0 9.06 4.05 9.06 9.05Z" fill="#E8E1D5"/><path d="M47.64 1.13h-4.51a9.05 9.05 0 0 1 9.06 9.05v8.24a2.26 2.26 0 1 0 4.5 0v-8.24c0-5-4.05-9.05-9.05-9.05Z" fill="#D6CFC4"/><path d="M14.14 71.36h9.02v4.51h-9.02v-4.51ZM53.84 71.36h9.02v4.51h-9.02v-4.51Z" fill="#E8E1D5"/><path d="M18.65 71.36h4.51v4.51h-4.51v-4.51ZM58.35 71.36h4.51v4.51h-4.5v-4.51Z" fill="#D6CFC4"/><path d="M66.85 12.1h-3.08a1.13 1.13 0 0 0 0 2.26h3.08a7.9 7.9 0 0 1 7.9 7.9v42.1a7.9 7.9 0 0 1-7.9 7.9h-2.86v-.9c0-.62-.5-1.13-1.13-1.13h-9.02c-.62 0-1.13.5-1.13 1.13v.9H24.3v-.9c0-.62-.5-1.13-1.13-1.13h-9.02c-.63 0-1.13.5-1.13 1.13v.9h-2.86a7.9 7.9 0 0 1-7.9-7.9V28.85a1.13 1.13 0 0 0-2.25 0v35.53c0 5.6 4.55 10.15 10.15 10.15h2.86v1.35c0 .62.5 1.13 1.13 1.13h9.02c.62 0 1.13-.5 1.13-1.13v-1.35H52.7v1.35c0 .62.5 1.13 1.13 1.13h9.02c.63 0 1.13-.5 1.13-1.13v-1.35h2.86c5.6 0 10.15-4.56 10.15-10.15V22.26c0-5.6-4.55-10.15-10.15-10.15ZM22.03 74.75h-6.77V72.5h6.77v2.25Zm39.7 0h-6.76V72.5h6.77v2.25Z" fill="#000"/><path d="M1.13 25.15c.62 0 1.13-.5 1.13-1.13v-1.76a7.9 7.9 0 0 1 7.9-7.9h9.01v4.06a3.39 3.39 0 0 0 6.77 0v-4.06h25.12v4.06a3.39 3.39 0 0 0 6.77 0v-4.06h1.12a1.13 1.13 0 0 0 0-2.25h-1.12v-1.93A10.2 10.2 0 0 0 47.64 0H29.36a10.2 10.2 0 0 0-10.19 10.18v1.93h-9.02C4.55 12.1 0 16.66 0 22.26v1.76c0 .63.5 1.13 1.13 1.13Zm24.81-13.04v-1.93a3.42 3.42 0 0 1 3.42-3.41h18.28a3.42 3.42 0 0 1 3.42 3.41v1.93H25.94Zm-4.5-1.93a7.94 7.94 0 0 1 7.92-7.92h18.28a7.94 7.94 0 0 1 7.93 7.92v8.24a1.13 1.13 0 0 1-2.26 0v-8.24a5.68 5.68 0 0 0-5.67-5.67H29.36a5.68 5.68 0 0 0-5.67 5.67v8.24a1.13 1.13 0 0 1-2.26 0v-8.24ZM28.69 61.08c-.4.48-.32 1.2.17 1.58a15.43 15.43 0 0 0 25.06-12.03c0-8.5-6.92-15.41-15.42-15.41a15.43 15.43 0 0 0-13.06 23.6 1.13 1.13 0 1 0 1.9-1.2A13.17 13.17 0 0 1 38.5 37.47c7.27 0 13.17 5.9 13.17 13.16A13.17 13.17 0 0 1 30.27 60.9a1.13 1.13 0 0 0-1.58.18Z" fill="#000"/><path d="M29.85 34.29a5.65 5.65 0 1 0-11.29.01 5.65 5.65 0 0 0 11.3-.01Zm-5.64 3.38a3.39 3.39 0 1 1 .01-6.77 3.39 3.39 0 0 1 0 6.77ZM58.43 34.29a5.65 5.65 0 1 0-11.3.01 5.65 5.65 0 0 0 11.3-.01Zm-5.64 3.38a3.39 3.39 0 1 1 0-6.77 3.39 3.39 0 0 1 0 6.77ZM44.14 28.88a5.65 5.65 0 1 0-11.3 0 5.65 5.65 0 0 0 11.3 0Zm-9.02 0a3.39 3.39 0 1 1 6.77 0 3.39 3.39 0 0 1-6.77 0ZM40.9 42.88a3.39 3.39 0 0 0-5.78 2.39v1.88h-1.88a3.39 3.39 0 0 0 0 6.77h1.88v1.87a3.39 3.39 0 0 0 6.76 0v-1.88h1.88a3.36 3.36 0 0 0 3.38-3.38 3.39 3.39 0 0 0-3.38-3.38h-1.88v-1.88c0-.9-.35-1.76-.99-2.4Zm2.86 6.52a1.13 1.13 0 0 1 0 2.26h-3c-.63 0-1.13.5-1.13 1.13v3a1.13 1.13 0 0 1-2.26 0v-3c0-.63-.5-1.13-1.13-1.13h-3a1.13 1.13 0 0 1 0-2.26h3c.63 0 1.13-.5 1.13-1.12v-3.01a1.13 1.13 0 0 1 2.26 0v3c0 .63.5 1.13 1.13 1.13h3ZM8.2 19.1a1.13 1.13 0 1 1-2.26 0 1.13 1.13 0 0 1 2.26 0ZM70.46 19.1a1.13 1.13 0 1 1-2.26 0 1.13 1.13 0 0 1 2.26 0ZM8.2 67.68a1.13 1.13 0 1 1-2.26 0 1.13 1.13 0 0 1 2.26 0ZM70.46 67.68a1.13 1.13 0 1 1-2.26 0 1.13 1.13 0 0 1 2.26 0Z" fill="#000"/></svg>