<svg width="78" height="78" fill="none" xmlns="http://www.w3.org/2000/svg"><path d="M1.3 1.3h75.4v16.9H1.3V1.3Z" fill="#F9ADB1"/><path d="M70.85 11.7A5.85 5.85 0 0 0 65 17.55v.65a6.5 6.5 0 1 0-13 0l-11.9 1.2.2-.52-13.11-4.42A6.47 6.47 0 0 0 26 18.2a6.5 6.5 0 1 0-13 0v-.65a5.85 5.85 0 1 0-11.7 0c0 4.75.58 9.48 1.73 14.09L6.5 45.5l5.52-17.66c.65-2.08.98-4.25.98-6.43v.67a6.32 6.32 0 0 0 1.85 4.47l4.43 4.43a.32.32 0 0 0 .45 0l4.42-4.43A6.32 6.32 0 0 0 26 22.08c0 1.68.67 3.29 1.85 4.47l4.43 4.42a.32.32 0 0 0 .45 0l4.42-4.42A6.32 6.32 0 0 0 39 22.08c0 1.68.67 3.29 1.85 4.47l4.42 4.42a.32.32 0 0 0 .46 0l4.42-4.42A6.32 6.32 0 0 0 52 22.08a6.32 6.32 0 0 0 1.85 4.47l4.43 4.43a.32.32 0 0 0 .45 0l4.42-4.43A6.32 6.32 0 0 0 65 22.08v-.67c0 2.18.33 4.35.98 6.43L71.5 45.5l3.47-13.86a58.08 58.08 0 0 0 1.73-14.09 5.85 5.85 0 0 0-5.85-5.85Z" fill="#E4E4E2"/><path d="M50.35 9.1a1.3 1.3 0 0 1-.68-.19 7.57 7.57 0 0 0-3.95-1.11h-.44c-1.09 0-2.16.23-3.14.68a1.3 1.3 0 0 1-1.08-2.37c1.32-.6 2.76-.91 4.22-.91h.44c1.87 0 3.7.52 5.3 1.5a1.3 1.3 0 0 1-.67 2.4Z" fill="#EEA5A9"/><path d="M57.2 33.8h2.6v2.6h-2.6v-2.6ZM57.2 39h2.6v5.2h-2.6V39Z" fill="#C0F5F9"/><path d="M39 18.2v1.3l-2.8.88a5.33 5.33 0 0 1-5.38-1.26l-2.7-2.7a3.22 3.22 0 0 1-.93-1.96A6.5 6.5 0 0 1 39 18.2Z" fill="#FBB540"/><path d="M33.8 18.2a1.3 1.3 0 1 0 0-2.6 1.3 1.3 0 0 0 0 2.6Z" fill="#DA922A"/><path d="M52 18.2h-2.3a2.97 2.97 0 0 0-2.48 1.32 3.81 3.81 0 0 1-4.6 1.43L39 19.5v-1.3a6.5 6.5 0 0 1 5.84-6.47l.16-.01.3-.02h.2a6.62 6.62 0 0 1 2.53.51 6.51 6.51 0 0 1 3.97 6Z" fill="#FBB540"/><path d="M44.2 18.2a1.3 1.3 0 1 0 0-2.6 1.3 1.3 0 0 0 0 2.6Z" fill="#DA922A"/><path d="M53.3 49.4a1.3 1.3 0 0 1-1.3-1.3V23.4a1.3 1.3 0 0 1 .64-1.12l3.22-1.9a.65.65 0 0 0-.61-.88H48.1a1.3 1.3 0 0 1 0-2.6h7.15a3.25 3.25 0 0 1 2.6 5.2c-.1.14-.23.25-.38.34l-2.87 1.7V48.1a1.3 1.3 0 0 1-1.3 1.3Z" fill="#6CBAE5"/><path d="M53.3 48.1a3.9 3.9 0 0 1 3.9 3.9v24.7h-7.8V52a3.9 3.9 0 0 1 3.9-3.9Z" fill="#428DC5"/><path d="M53.3 59.8h3.9v2.6h-3.9v-2.6ZM53.3 65h3.9v2.6h-3.9V65ZM53.3 70.2h3.9v2.6h-3.9v-2.6Z" fill="#3775A4"/><path d="M49.4 55.9h7.8V52a3.9 3.9 0 0 0-7.8 0v3.9Z" fill="#4799CF"/><path d="M57.2 33.8h2.6v2.6h-2.6v-2.6ZM57.2 39h2.6v5.2h-2.6V39Z" fill="#000"/><path d="M76.7 0H1.3A1.3 1.3 0 0 0 0 1.3v17.02c.07 4.6.66 9.17 1.77 13.63l3.47 13.87a1.3 1.3 0 0 0 1.22.98h.04a1.3 1.3 0 0 0 1.24-.91l5.52-17.66c.12-.38.22-.76.32-1.14l.35.38 4.43 4.42a1.62 1.62 0 0 0 2.28 0l4.43-4.42c.34-.35.66-.73.93-1.13.27.4.59.78.93 1.13l4.42 4.42a1.62 1.62 0 0 0 2.3 0l4.42-4.42c.35-.35.66-.73.93-1.14.27.41.58.8.93 1.14l4.42 4.42a1.62 1.62 0 0 0 2.3 0l4.42-4.42c.34-.35.66-.73.93-1.13v20.62A5.2 5.2 0 0 0 48.1 52v24.7a1.3 1.3 0 0 0 1.3 1.3h7.8a1.3 1.3 0 0 0 1.3-1.3V52a5.2 5.2 0 0 0-3.9-5.04V29.14l2.76 2.75a1.62 1.62 0 0 0 2.28 0l4.43-4.42.35-.38c.1.38.2.76.32 1.14l5.52 17.66a1.3 1.3 0 0 0 1.24.91h.04a1.3 1.3 0 0 0 1.22-.98l3.47-13.87A59.43 59.43 0 0 0 78 18.2V1.3A1.3 1.3 0 0 0 76.7 0Zm-1.3 2.6v9.44a7.14 7.14 0 0 0-10.55 1.63A7.8 7.8 0 0 0 52 13.9a7.9 7.9 0 0 0-3.88-3.04A7.8 7.8 0 0 0 39 13.9a7.9 7.9 0 0 0-3.83-3.02 7.8 7.8 0 0 0-9.05 2.84l-.01.02-.11.16a7.8 7.8 0 0 0-12.85-.22A7.14 7.14 0 0 0 2.6 12.04V2.6h72.8ZM55.9 20.15c0 .08-.01.15-.04.22L53.3 21.9V19.5h1.95a.65.65 0 0 1 .65.65Zm-7.8-3.25a1.3 1.3 0 0 0-1.29 1.11c-.25.24-.48.5-.67.8a2.52 2.52 0 0 1-3.03.93l-2.81-1.12V18.19a5.2 5.2 0 0 1 10.24-1.29H48.1Zm-10.4 1.65-1.9.6a4.03 4.03 0 0 1-4.06-.95l-3.2-3.2v-.16a5.2 5.2 0 0 1 9.16 3.36v.35Zm-26.92 8.9L6.64 40.7 4.3 31.32a56.83 56.83 0 0 1-1.7-13.77 4.55 4.55 0 0 1 9.1 0v3.86c0 2.05-.31 4.09-.92 6.04Zm8.72 1.91-3.73-3.73a4.99 4.99 0 0 1-1.47-3.55V18.2a5.2 5.2 0 0 1 10.4 0v3.88a4.99 4.99 0 0 1-1.47 3.55l-3.73 3.73Zm16.73-3.73-3.73 3.73-3.73-3.73a5.05 5.05 0 0 1-1.47-3.55V18.2c0-.24.02-.48.05-.71l2.55 2.55.22.21a6.53 6.53 0 0 0 6.47 1.37l1.11-.35v.81c0 1.33-.53 2.6-1.47 3.55Zm14.47-3.55c0 1.33-.53 2.6-1.47 3.55l-3.73 3.73-3.73-3.73a5.05 5.05 0 0 1-1.47-3.55v-.66l1.84.74a5.07 5.07 0 0 0 4.3-.24c.75-.4 1.39-.97 1.86-1.67a1.67 1.67 0 0 1 1.4-.75h1v2.58Zm0 53.32V57.2h5.2v2.6h-2.6v2.6h2.6V65h-2.6v2.6h2.6v2.6h-2.6v2.6h2.6v2.6h-5.2ZM55.9 52v2.6h-5.2V52a2.6 2.6 0 1 1 5.2 0Zm7.8-29.92a4.99 4.99 0 0 1-1.47 3.55l-3.73 3.73-3.73-3.73a5.21 5.21 0 0 1-.17-.18v-1.3l2.87-1.71c.15-.09.28-.2.38-.34a3.25 3.25 0 0 0-2.6-5.2h-1.79a5.2 5.2 0 0 1 10.24 1.3v3.88Zm7.66 18.62-4.14-13.25c-.6-1.95-.92-4-.92-6.04v-3.86a4.55 4.55 0 0 1 9.1 0c0 4.64-.57 9.27-1.7 13.77l-2.34 9.38Z" fill="#000"/><path d="M42.14 8.48a7.53 7.53 0 0 1 3.14-.68h.44c1.4 0 2.76.38 3.95 1.11a1.3 1.3 0 0 0 1.35-2.22c-1.6-.97-3.43-1.49-5.3-1.49h-.44c-1.46 0-2.9.31-4.22.91a1.3 1.3 0 0 0 1.08 2.37ZM33.8 18.2a1.3 1.3 0 1 0 0-2.6 1.3 1.3 0 0 0 0 2.6ZM44.2 18.2a1.3 1.3 0 1 0 0-2.6 1.3 1.3 0 0 0 0 2.6Z" fill="#000"/></svg>