<svg width="40" height="78" fill="none" xmlns="http://www.w3.org/2000/svg"><path d="M31.22 61.28H8.78l-2.36-4.53h27.16l-2.36 4.53Z" fill="#716680"/><path d="m29.06 56.75-2.37 4.53h4.53l2.36-4.53h-4.52Z" fill="#635870"/><path d="M15.47 61.28h9.06v4.53h-9.06v-4.53Z" fill="#FF573D"/><path d="M20 61.28h4.53v4.53H20v-4.53Z" fill="#E64028"/><path d="M6.42 17.5h27.16v39.25H6.42V17.51Z" fill="#CEE8F2"/><path d="M29.06 17.5h4.52v39.25h-4.52V17.51Z" fill="#9AD5ED"/><path d="M36.6 17.5H3.4a2.26 2.26 0 1 1 0-4.52h33.2a2.26 2.26 0 1 1 0 4.53Z" fill="#716680"/><path d="M36.6 12.98h-4.52a2.26 2.26 0 1 1 0 4.53h4.52a2.26 2.26 0 1 0 0-4.53Z" fill="#635870"/><path d="M27.85 5.66h-15.7a2.26 2.26 0 1 1 0-4.53h15.7a2.26 2.26 0 1 1 0 4.53Z" fill="#E8E1D5"/><path d="M27.85 1.13h-4.53a2.26 2.26 0 1 1 0 4.53h4.53a2.26 2.26 0 1 0 0-4.53ZM17.74 5.66h4.52v7.32h-4.52V5.66Z" fill="#D6CFC4"/><path d="M6.42 39.68v17.07h27.16V42.28c-9.04-.52-12.93-6.66-19.92-6.66-3 0-5.69 1.56-7.24 4.06Z" fill="#78C0DE"/><path d="M33.58 39.68v17.07H6.42V42.28c9.04-.52 12.93-6.66 19.92-6.66a8.48 8.48 0 0 1 7.24 4.06Z" fill="#89CEEA"/><path d="M33.58 39.68v17.07h-4.52V36.07a8.58 8.58 0 0 1 4.52 3.61Z" fill="#78C0DE"/><path d="M28.6 31.25a3.02 3.02 0 1 1-6.03 0 3.02 3.02 0 0 1 6.03 0ZM17.43 31.25a3.02 3.02 0 1 1-6.03 0 3.02 3.02 0 0 1 6.03 0Z" fill="#B0693C"/><path d="M26.94 36.53c0-3.09-3.1-5.59-6.94-5.59-3.83 0-6.94 2.5-6.94 5.59 0 3.08 3.1 5.58 6.94 5.58 3.83 0 6.94-2.5 6.94-5.58Z" fill="#FFD659"/><path d="M36.6 11.85h-6.9a1.13 1.13 0 1 0 0 2.26h6.9a1.13 1.13 0 0 1 0 2.27H3.4a1.13 1.13 0 0 1 0-2.27h21.47a1.13 1.13 0 1 0 0-2.26H23.4V6.79h4.45a3.4 3.4 0 0 0 0-6.79h-15.7a3.4 3.4 0 0 0 0 6.8h4.45v5.05H3.4a3.4 3.4 0 0 0 0 6.8h1.88v.65a1.13 1.13 0 1 0 2.27 0v-.66h24.9V36.7a9.64 9.64 0 0 0-4.47-2.07 4.16 4.16 0 1 0-6.34-4.68 9.66 9.66 0 0 0-3.28 0 4.16 4.16 0 1 0-6.34 4.68c-1.65.29-3.19 1-4.47 2.07V24.15a1.13 1.13 0 0 0-2.27 0V56.87a1.09 1.09 0 0 0 .07.26v.03l.06.1v.03h.01l2.36 4.52c.2.37.58.6 1 .6h5.56v3.4c0 .63.5 1.13 1.13 1.13h3.4v9.21a1.13 1.13 0 0 0 2.26 0v-9.2h3.4c.62 0 1.13-.51 1.13-1.14v-3.4h5.56c.42 0 .8-.23 1-.6l2.36-4.52v-.01l.01-.02a1.03 1.03 0 0 0 .1-.24V57l.02-.13V53.1a1.13 1.13 0 1 0-2.26 0v2.51H7.55v-12.3c2.86-.31 5.13-1.14 6.88-1.93A8.97 8.97 0 0 0 20 43.25c2.16 0 4.12-.71 5.57-1.86 1.75.8 4.02 1.62 6.88 1.93v4.96a1.13 1.13 0 0 0 2.27 0V18.64h1.88a3.4 3.4 0 0 0 0-6.8ZM11.02 3.4c0-.63.5-1.14 1.13-1.14h15.7a1.13 1.13 0 0 1 0 2.27h-15.7c-.62 0-1.13-.5-1.13-1.13Zm7.85 3.4h2.26v5.05h-2.26V6.79Zm6.71 22.56a1.89 1.89 0 0 1 1.11 3.41 7.8 7.8 0 0 0-2.88-2.16c.26-.73.96-1.25 1.77-1.25Zm-11.16 0c.81 0 1.5.52 1.77 1.25a7.8 7.8 0 0 0-2.88 2.16 1.89 1.89 0 0 1 1.1-3.42Zm8.98 35.32h-6.8v-2.26h6.8v2.26Zm8.32-6.8-1.19 2.27H9.47L8.28 57.9h23.44ZM7.55 40.03a7.47 7.47 0 0 1 4.4-3.06c.07.95.38 1.85.88 2.66-1.43.6-3.18 1.17-5.28 1.42v-1.02Zm7.92-.7a3.8 3.8 0 0 1-1.28-2.79c0-.61.16-1.2.45-1.73l.03-.04a5.38 5.38 0 0 1 3.13-2.35 7.34 7.34 0 0 1 4.47.02 5.38 5.38 0 0 1 3.06 2.33l.03.04c.29.54.45 1.12.45 1.73a3.8 3.8 0 0 1-1.28 2.78A6.6 6.6 0 0 1 20 40.98a6.6 6.6 0 0 1-4.53-1.67Zm11.7.3c.5-.8.81-1.7.89-2.66a7.47 7.47 0 0 1 4.4 3.06v1.02c-2.11-.25-3.86-.83-5.3-1.42Z" fill="#000"/><path d="M19.17 34.45a1.13 1.13 0 1 1-2.27 0 1.13 1.13 0 0 1 2.27 0ZM23.1 34.45a1.13 1.13 0 1 1-2.27 0 1.13 1.13 0 0 1 2.26 0Z" fill="#000"/></svg>