<svg width="46" height="73" fill="none" xmlns="http://www.w3.org/2000/svg"><path d="M37.86 71.43H7.35a3.78 3.78 0 0 1-3.78-3.78V5.35c0-2.09 1.69-3.78 3.78-3.78h30.5c2.1 0 3.79 1.69 3.79 3.78v62.3c0 2.09-1.7 3.78-3.78 3.78Z" fill="#EAF6FF" stroke="#000"/><path d="M37.86 72.5H7.35a4.85 4.85 0 0 1-4.85-4.85V5.35A4.85 4.85 0 0 1 7.35.5h30.5a4.85 4.85 0 0 1 4.86 4.85v62.3a4.85 4.85 0 0 1-4.85 4.85ZM7.35 1.64a3.71 3.71 0 0 0-3.71 3.7v62.31c0 2.05 1.66 3.71 3.7 3.71h30.52c2.04 0 3.7-1.66 3.7-3.7V5.34c0-2.05-1.66-3.71-3.7-3.71H7.35Z" fill="#9E9797" stroke="#000"/><path d="M26.97 5.95h-8.74a3.78 3.78 0 0 1-3.77-3.78v-.6h16.29v.6c0 2.1-1.7 3.78-3.78 3.78Z" fill="#9E9797" stroke="#000"/><path d="M31.64 28.96a13.76 13.76 0 0 1 13.69 13.72c0 3.36-1.21 6.45-3.22 8.83a3.34 3.34 0 0 0-.45 3.62l1.5 3.04a.3.3 0 0 1-.39.43l-6.35-2.38a3.33 3.33 0 0 0-1.87-.13 13.76 13.76 0 0 1-16.66-13.42 13.72 13.72 0 0 1 13.75-13.7Z" fill="#FFBD54"/><path d="M41.66 55.13a3.34 3.34 0 0 1 .45-3.62 13.66 13.66 0 0 0 3.22-8.83 13.76 13.76 0 0 0-15.19-13.64A13.77 13.77 0 0 1 42.4 42.68c0 3.36-1.2 6.45-3.22 8.83a3.34 3.34 0 0 0-.44 3.62l1.17 2.4 2.86 1.07c.26.1.5-.18.39-.43l-1.5-3.04Z" fill="#FFD064"/><path d="M14.36 22.67A13.76 13.76 0 0 0 .67 36.4c0 3.36 1.21 6.45 3.22 8.84a3.34 3.34 0 0 1 .45 3.62l-1.5 3.03a.3.3 0 0 0 .39.43l6.35-2.38c.6-.22 1.25-.27 1.87-.13a13.76 13.76 0 0 0 16.66-13.42 13.72 13.72 0 0 0-13.75-13.7Z" fill="#78C0DE"/><path d="M14.36 22.67c-.52 0-1.03.04-1.53.1a13.72 13.72 0 0 1 0 27.25 13.76 13.76 0 0 0 15.29-13.65 13.72 13.72 0 0 0-13.76-13.7Z" fill="#80B4FB"/><path d="m13.84 33.67-3.58-3.59a.41.41 0 0 0-.59 0l-.8.81a3.09 3.09 0 0 0 0 4.37l6.66 6.66a3.09 3.09 0 0 0 4.36 0l.81-.8a.41.41 0 0 0 0-.59l-3.59-3.59a.41.41 0 0 0-.58 0l-.72.73a.88.88 0 0 1-1.25 0l-1.44-1.44a.88.88 0 0 1 0-1.25l.72-.73a.41.41 0 0 0 0-.58Z" fill="#26457D"/><path d="M28.68 42.16v1.05a.67.67 0 1 0 1.35 0v-1.05a.67.67 0 1 0-1.35 0ZM33.19 42.16v1.05a.67.67 0 1 0 1.34 0v-1.05a.67.67 0 1 0-1.34 0ZM37.7 42.16v1.05a.67.67 0 1 0 1.34 0v-1.05a.67.67 0 1 0-1.34 0Z" fill="#000"/><path d="M31.64 28.29h-.03c-1.65 0-3.26.27-4.8.82A14.48 14.48 0 0 0 14.4 22h-.03c-1.6 0-3.2.27-4.7.8a.67.67 0 1 0 .44 1.28c1.37-.48 2.8-.73 4.27-.73h.02c3.48 0 6.75 1.35 9.21 3.8a12.97 12.97 0 0 1 3.84 9.22c0 3.43-1.32 6.67-3.74 9.14a12.96 12.96 0 0 1-12.1 3.63 4 4 0 0 0-2.26.16l-5.48 2.05 1.08-2.2c.7-1.44.5-3.14-.53-4.36a13.05 13.05 0 0 1 3.37-19.63.67.67 0 0 0-.69-1.16 14.33 14.33 0 0 0-3.71 21.66c.68.8.82 1.94.35 2.89l-1.5 3.04c-.17.36-.11.79.16 1.09.28.3.7.4 1.07.26l6.35-2.38c.48-.18 1-.21 1.5-.1a14.51 14.51 0 0 0 7.9-.5 14.43 14.43 0 0 0 15.48 6.78c.5-.1 1.02-.07 1.5.11l6.35 2.38a.98.98 0 0 0 1.22-1.35l-1.5-3.04a2.67 2.67 0 0 1 .32-2.83.67.67 0 1 0-1.06-.84 4.03 4.03 0 0 0-.46 4.26l1.09 2.21-5.49-2.05a4 4 0 0 0-2.26-.16 13.07 13.07 0 0 1-13.94-5.99 14.46 14.46 0 0 0 6.99-19.13c1.33-.45 2.73-.67 4.16-.67h.02a13.07 13.07 0 0 1 11.38 19.4.67.67 0 0 0 1.17.65 14.4 14.4 0 0 0-12.54-21.4Z" fill="#000"/><path d="m8.4 35.73 3.64 3.65a.67.67 0 0 0 .95-.96l-3.65-3.64a2.41 2.41 0 0 1 0-3.41l.63-.62 3.21 3.21-.54.54c-.6.6-.6 1.6 0 2.2l1.44 1.44c.6.6 1.6.6 2.2 0l.54-.54 3.22 3.22-.62.62c-.94.94-2.47.94-3.41 0l-1.11-1.1a.67.67 0 0 0-.96.94l1.12 1.12a3.75 3.75 0 0 0 5.31 0l.8-.81a1.08 1.08 0 0 0 0-1.54l-3.58-3.58a1.09 1.09 0 0 0-1.53 0l-.73.72a.21.21 0 0 1-.3 0l-1.43-1.44a.21.21 0 0 1 0-.3l.72-.72c.42-.42.42-1.11 0-1.53l-3.59-3.6a1.08 1.08 0 0 0-1.53 0l-.8.82a3.76 3.76 0 0 0 0 5.31Z" fill="#000"/></svg>