<svg width="77" height="72" fill="none" xmlns="http://www.w3.org/2000/svg"><path d="m75.47 24.93-3.22 2.97H4.82l-3.3-2.97V17.8a2.94 2.94 0 0 1 2.95-2.94h68.06a2.94 2.94 0 0 1 2.94 2.94v7.13Z" fill="#FFBD54"/><path d="M72.53 14.86h-3.5a2.94 2.94 0 0 1 2.95 2.94v10.1l3.5-2.97V17.8a2.94 2.94 0 0 0-2.95-2.94Z" fill="#D99830"/><path d="M75.47 24.93H1.53V67.8a2.94 2.94 0 0 0 2.94 2.94h68.06a2.94 2.94 0 0 0 2.94-2.94V24.93Z" fill="#F4FBFF"/><path d="M71.98 24.93H1.53v3.23h66.7a3.75 3.75 0 0 1 3.75 3.75v35.9a2.94 2.94 0 0 1-2.94 2.94h3.5a2.94 2.94 0 0 0 2.93-2.94V24.93h-3.5Z" fill="#DAF1F4"/><path d="M38.5 6.55a2.72 2.72 0 1 0 0-5.44 2.72 2.72 0 0 0 0 5.44Z" fill="#365E7D"/><path d="M51.53 18.78H25.47a1.12 1.12 0 1 0 0 2.23h26.06a1.12 1.12 0 1 0 0-2.23ZM11.98 31.38H7.46a1.12 1.12 0 1 0 0 2.23h4.52a1.12 1.12 0 1 0 0-2.23ZM21.57 31.38h-4.52a1.12 1.12 0 1 0 0 2.23h4.52a1.12 1.12 0 1 0 0-2.23ZM31.17 31.38h-4.52a1.12 1.12 0 1 0 0 2.23h4.52a1.12 1.12 0 1 0 0-2.23ZM40.76 31.38h-4.52a1.12 1.12 0 1 0 0 2.23h4.52a1.12 1.12 0 1 0 0-2.23ZM50.35 31.38h-4.52a1.12 1.12 0 1 0 0 2.23h4.52a1.12 1.12 0 1 0 0-2.23ZM59.95 31.38h-4.52a1.12 1.12 0 1 0 0 2.23h4.52a1.12 1.12 0 1 0 0-2.23ZM69.54 31.38h-4.52a1.12 1.12 0 1 0 0 2.23h4.52a1.12 1.12 0 1 0 0-2.23ZM11.98 38.95H7.46a1.12 1.12 0 1 0 0 2.23h4.52a1.12 1.12 0 1 0 0-2.23ZM21.57 38.95h-4.52a1.12 1.12 0 1 0 0 2.23h4.52a1.12 1.12 0 1 0 0-2.23ZM31.17 38.95h-4.52a1.12 1.12 0 1 0 0 2.23h4.52a1.12 1.12 0 1 0 0-2.23ZM40.76 38.95h-4.52a1.12 1.12 0 1 0 0 2.23h4.52a1.12 1.12 0 1 0 0-2.23ZM50.35 38.95h-4.52a1.12 1.12 0 1 0 0 2.23h4.52a1.12 1.12 0 1 0 0-2.23ZM59.95 38.95h-4.52a1.12 1.12 0 1 0 0 2.23h4.52a1.12 1.12 0 1 0 0-2.23ZM69.54 38.95h-4.52a1.12 1.12 0 1 0 0 2.23h4.52a1.12 1.12 0 1 0 0-2.23ZM11.98 46.52H7.46a1.12 1.12 0 1 0 0 2.23h4.52a1.12 1.12 0 1 0 0-2.23ZM21.57 46.52h-4.52a1.12 1.12 0 1 0 0 2.23h4.52a1.12 1.12 0 1 0 0-2.23ZM31.17 46.52h-4.52a1.12 1.12 0 1 0 0 2.23h4.52a1.12 1.12 0 1 0 0-2.23ZM40.76 46.52h-4.52a1.12 1.12 0 1 0 0 2.23h4.52a1.12 1.12 0 1 0 0-2.23ZM50.35 46.52h-4.52a1.12 1.12 0 1 0 0 2.23h4.52a1.12 1.12 0 1 0 0-2.23ZM59.95 46.52h-4.52a1.12 1.12 0 1 0 0 2.23h4.52a1.12 1.12 0 1 0 0-2.23ZM69.54 46.52h-4.52a1.12 1.12 0 1 0 0 2.23h4.52a1.12 1.12 0 1 0 0-2.23ZM11.98 54.1H7.46a1.12 1.12 0 1 0 0 2.22h4.52a1.12 1.12 0 1 0 0-2.23ZM21.57 54.1h-4.52a1.12 1.12 0 1 0 0 2.22h4.52a1.12 1.12 0 1 0 0-2.23ZM31.17 54.1h-4.52a1.12 1.12 0 1 0 0 2.22h4.52a1.12 1.12 0 1 0 0-2.23ZM40.76 54.1h-4.52a1.12 1.12 0 1 0 0 2.22h4.52a1.12 1.12 0 1 0 0-2.23ZM50.35 54.1h-4.52a1.12 1.12 0 1 0 0 2.22h4.52a1.12 1.12 0 1 0 0-2.23ZM59.95 54.1h-4.52a1.12 1.12 0 1 0 0 2.22h4.52a1.12 1.12 0 1 0 0-2.23ZM69.54 54.1h-4.52a1.12 1.12 0 1 0 0 2.22h4.52a1.12 1.12 0 1 0 0-2.23ZM11.98 61.66H7.46a1.12 1.12 0 1 0 0 2.23h4.52a1.12 1.12 0 1 0 0-2.23ZM21.57 61.66h-4.52a1.12 1.12 0 1 0 0 2.23h4.52a1.12 1.12 0 1 0 0-2.23ZM31.17 61.66h-4.52a1.12 1.12 0 1 0 0 2.23h4.52a1.12 1.12 0 1 0 0-2.23Z" fill="#000"/><path d="M72.53 13.74H68c-.2-.15 1.43.7-25.75-12.87a8.45 8.45 0 0 0-7.48 0C7.57 14.44 9.2 13.6 9 13.74H4.47A4.06 4.06 0 0 0 .4 17.8v50a4.06 4.06 0 0 0 4.06 4.06h68.06a4.06 4.06 0 0 0 4.06-4.05v-5.14a1.12 1.12 0 1 0-2.23 0v5.14c0 1-.82 1.82-1.83 1.82H4.47c-1 0-1.83-.82-1.83-1.82V26.04h71.72v32.17a1.12 1.12 0 1 0 2.23 0V17.8a4.06 4.06 0 0 0-4.06-4.07ZM40.1 3.83a1.6 1.6 0 1 1-1.76-1.6h.32c.81.09 1.44.77 1.44 1.6ZM2.64 17.8c0-1 .82-1.83 1.83-1.83h17.21a1.12 1.12 0 1 0 0-2.23h-7.73L34.7 3.4a3.84 3.84 0 1 0 7.62 0l20.74 10.34h-36.9a1.12 1.12 0 1 0 0 2.23h46.38c1 0 1.83.82 1.83 1.83v6.01H2.64v-6Z" fill="#000"/></svg>