<svg width="73" height="73" fill="none" xmlns="http://www.w3.org/2000/svg"><path d="M51.76 71.93H21.24a4.28 4.28 0 0 1-4.27-4.28V5.35a4.28 4.28 0 0 1 4.27-4.28h30.52a4.28 4.28 0 0 1 4.27 4.28v62.3a4.28 4.28 0 0 1-4.27 4.28Z" fill="#EAF6FF"/><path d="M43.47 49.15c0 10.3 8.43 17.11 12.38 19.74.12-.4.18-.8.18-1.24V33.23a16.4 16.4 0 0 0-12.56 15.92Z" fill="#D8ECFE"/><path d="M51.76 73H21.24a5.35 5.35 0 0 1-5.34-5.35V5.35C15.9 2.4 18.3 0 21.24 0h30.52c2.94 0 5.34 2.4 5.34 5.35v62.3c0 2.95-2.4 5.35-5.34 5.35ZM21.24 2.14a3.21 3.21 0 0 0-3.2 3.2v62.31c0 1.77 1.44 3.21 3.2 3.21h30.52c1.76 0 3.2-1.44 3.2-3.2V5.34c0-1.77-1.44-3.21-3.2-3.21H21.24Z" fill="#9E9797"/><path d="M21.26 41.33c-4.68 0-8.92-2.76-10.79-7.03l-2.23-5.1a12.87 12.87 0 0 1-.39-9.31l1.28-3.76a8.6 8.6 0 0 1 8.15-5.8h7.97a8.6 8.6 0 0 1 8.15 5.8l1.28 3.76c1.03 3.04.9 6.36-.4 9.31l-2.22 5.1a11.77 11.77 0 0 1-10.8 7.03Z" fill="#FED2A4"/><path d="m34.68 19.89-1.28-3.76a8.59 8.59 0 0 0-6.58-5.66 8.53 8.53 0 0 1 2.3 3.53l1.28 3.75c1.04 3.04.9 6.36-.4 9.31l-2.22 5.1a11.77 11.77 0 0 1-13.83 6.64 11.8 11.8 0 0 0 18.1-4.5l2.24-5.1a12.87 12.87 0 0 0 .39-9.31Z" fill="#FFBD54"/><path d="M41.46 23.55c0 2.1-2.63 3.07-4 1.48a45.35 45.35 0 0 1-6.87-10.72c-1.24-2.7 1.92-5.28 4.33-3.54l5.5 3.93a2.5 2.5 0 0 1 1.04 2.02v6.83Z" fill="#FFBD54"/><path d="m40.41 14.7-2.44-1.75c.15.32.24.68.24 1.05v6.83a2.27 2.27 0 0 1-2.32 2.27c.52.68 1.05 1.33 1.57 1.93 1.37 1.6 4 .62 4-1.48v-6.83c0-.8-.4-1.55-1.05-2.02Z" fill="#C38325"/><path d="M1.07 23.55c0 2.1 2.63 3.07 4 1.48a45.36 45.36 0 0 0 6.87-10.72c1.23-2.7-1.92-5.28-4.34-3.54L2.11 14.7a2.5 2.5 0 0 0-1.04 2.02v6.83Z" fill="#FFBD54"/><path d="M18.97 27.65h3.7c.75 0 1.22.82.83 1.46l-1.84 3.1a.98.98 0 0 1-1.68 0l-1.85-3.1a.97.97 0 0 1 .84-1.46ZM40.87 6.45h-8.74a4.28 4.28 0 0 1-4.28-4.28v-1.1h17.3v1.1a4.28 4.28 0 0 1-4.28 4.28Z" fill="#9E9797"/><path d="M71.93 49.15c0 9.44-12.1 17.16-12.1 17.16s-12.08-6.4-12.08-17.16a12.1 12.1 0 1 1 24.18 0Z" fill="#78C0DE"/><path d="M63 37.47a12.07 12.07 0 0 1 4.65 9.54c0 8.22-9.16 15.14-11.53 16.79a27.5 27.5 0 0 0 3.72 2.51s12.1-7.72 12.1-17.16a12.1 12.1 0 0 0-8.95-11.68Z" fill="#61ADCD"/><path d="M59.84 52.11a4.15 4.15 0 1 0 0-8.3 4.15 4.15 0 0 0 0 8.3Z" fill="#fff"/><path d="M42.12 47.19c.45.38 1.13.32 1.51-.13l.01-.01c.38-.45.32-1.12-.13-1.5a1.08 1.08 0 0 0-1.51.13c-.38.45-.33 1.12.12 1.5Zm.4-11.71c.37-.47.29-1.14-.18-1.5l-.01-.01a1.07 1.07 0 1 0-1.31 1.68v.01c.47.36 1.14.28 1.5-.18Zm.45 29.43a1.07 1.07 0 1 0 .01-2.14 1.07 1.07 0 1 0 0 2.14Zm4.3 0a1.07 1.07 0 1 0 .01-2.14h-.02a1.07 1.07 0 1 0 0 2.14ZM24.63 21.43a4.03 4.03 0 0 1 3 0 1.07 1.07 0 0 0 .8-1.99 6.12 6.12 0 0 0-4.59 0 1.07 1.07 0 1 0 .8 1.99Zm-6.76 0a1.07 1.07 0 0 0 .8-1.99 6.11 6.11 0 0 0-4.58 0 1.07 1.07 0 1 0 .8 1.99 4.03 4.03 0 0 1 2.98 0Zm8.03 12.88a1.07 1.07 0 1 0-2.14 0c0 .52-.42.93-.94.93a.94.94 0 0 1-.94-.93v-.86c.27-.17.51-.4.68-.7l1.85-3.09c.38-.63.4-1.4.03-2.04a2.05 2.05 0 0 0-1.78-1.04h-3.7c-.74 0-1.42.4-1.78 1.04-.37.64-.36 1.4.02 2.04l1.85 3.1c.18.29.41.52.69.7v.85c0 .52-.42.93-.94.93a.94.94 0 0 1-.95-.93 1.07 1.07 0 1 0-2.13 0 3.08 3.08 0 0 0 5.09 2.33 3.07 3.07 0 0 0 5.1-2.33Zm-6.77-5.59h3.35l-1.67 2.8-1.68-2.8Zm13.9 6 2.22-5.09c.6-1.35.97-2.78 1.1-4.23l.29.33a3.3 3.3 0 0 0 3.7.95 3.3 3.3 0 0 0 2.18-3.13v-6.83c0-1.14-.56-2.23-1.5-2.9L35.55 9.9a3.94 3.94 0 0 0-5.39.7 9.77 9.77 0 0 0-4.91-1.34h-7.21V5.35c0-1.77 1.44-3.21 3.2-3.21h5.54v.03c0 2.95 2.4 5.35 5.35 5.35h8.74c2.95 0 5.35-2.4 5.35-5.35v-.03h5.54c1.76 0 3.2 1.44 3.2 3.2V33.4a1.07 1.07 0 1 0 2.14 0V5.35C57.1 2.4 54.7 0 51.76 0H21.24a5.35 5.35 0 0 0-5.34 5.35v4c-1.25.19-2.45.6-3.53 1.24a3.94 3.94 0 0 0-5.39-.7l-5.49 3.94A3.57 3.57 0 0 0 0 16.73v6.82c0 1.4.86 2.63 2.18 3.13a3.31 3.31 0 0 0 3.7-.95l.28-.33c.14 1.45.51 2.88 1.1 4.23l2.23 5.1a12.84 12.84 0 0 0 11.77 7.67c5.12 0 9.74-3 11.78-7.67ZM28.92 2.15h15.16v.03c0 1.77-1.44 3.21-3.21 3.21h-8.74a3.21 3.21 0 0 1-3.2-3.2v-.04Zm3.14 9.57c.3-.25.71-.44 1.17-.44.34 0 .7.1 1.07.36l5.49 3.94c.37.26.6.7.6 1.15v6.83c0 .77-.6 1.05-.79 1.12-.18.07-.83.25-1.33-.34a44.4 44.4 0 0 1-6.71-10.47 1.75 1.75 0 0 1 .5-2.15ZM4.26 24.33c-.5.59-1.15.41-1.34.34a1.17 1.17 0 0 1-.78-1.12v-6.83c0-.45.22-.89.6-1.15l5.49-3.94c.36-.25.72-.36 1.06-.36.46 0 .88.19 1.18.44.52.43.92 1.22.5 2.15a44.33 44.33 0 0 1-6.71 10.47Zm7.19 9.54-2.23-5.1a11.79 11.79 0 0 1-.9-6.13 46.25 46.25 0 0 0 4.6-7.89c.32-.71.42-1.47.32-2.19a7.6 7.6 0 0 1 4.04-1.16h7.97c1.42 0 2.83.4 4.03 1.16-.1.72 0 1.48.33 2.19a46.46 46.46 0 0 0 4.6 7.89 11.8 11.8 0 0 1-.9 6.13l-2.23 5.1a10.7 10.7 0 0 1-9.82 6.4 10.7 10.7 0 0 1-9.81-6.4Zm33.05 5.4c.56-.19.86-.8.67-1.36l-.01-.03c-.2-.56-.81-.85-1.37-.65-.56.2-.85.8-.65 1.36.2.56.8.86 1.36.68ZM29.05 63.55a1.08 1.08 0 1 0 2.12.35 1.07 1.07 0 0 0-.88-1.21c-.58-.1-1.13.28-1.24.86Zm16.52-20.92v-.02a1.07 1.07 0 0 0-2.12-.26 1.07 1.07 0 0 0 2.12.28ZM25.34 54.35c.2-.56-.1-1.16-.66-1.36a1.07 1.07 0 0 0-.7 2.03c.54.2 1.16-.09 1.36-.65v-.02Zm-1.46 2.84c-.57.15-.91.73-.76 1.3.11.5.55.82 1.03.82.68 0 1.21-.66 1.04-1.32v-.03a1.07 1.07 0 0 0-1.3-.77ZM59.84 36c-7.26 0-13.16 5.9-13.16 13.16 0 4.7 2.2 9.32 6.37 13.38.65.63 1.3 1.2 1.91 1.72v3.4c0 1.77-1.44 3.21-3.2 3.21H21.24a3.21 3.21 0 0 1-3.2-3.2V44.9a1.07 1.07 0 1 0-2.14 0v22.75c0 2.95 2.4 5.35 5.34 5.35h30.52c2.94 0 5.34-2.4 5.34-5.35v-1.79c1.28.89 2.17 1.36 2.24 1.4a1.07 1.07 0 0 0 1.07-.05C60.93 66.9 73 59.06 73 49.15c0-7.26-5.9-13.16-13.16-13.16Zm-.05 29.06c-2.29-1.38-10.97-7.2-10.97-15.9 0-6.08 4.94-11.02 11.02-11.02 6.08 0 11.02 4.94 11.02 11.02 0 7.65-8.8 14.3-11.07 15.9ZM27.45 51.41a1.07 1.07 0 1 0-1.3-1.7l-.02.02a1.07 1.07 0 1 0 1.31 1.68h.01Zm32.39-8.67a5.23 5.23 0 1 0 .01 10.45 5.23 5.23 0 0 0-.01-10.45Zm0 8.3a3.09 3.09 0 1 1 0-6.17 3.09 3.09 0 0 1 0 6.17ZM27.09 62.62c.41-.43.4-1.1-.03-1.51l-.03-.03a1.07 1.07 0 0 0-1.51.06c-.4.44-.38 1.1.06 1.5.43.4 1.1.4 1.51-.02Zm4.71-13.69a1.07 1.07 0 0 0-1.15-.97 1.07 1.07 0 0 0 .14 2.13c.6-.03 1.07-.55 1.01-1.16Zm8.5-.56a1.07 1.07 0 0 0-2.05.63c.18.57.78.88 1.34.71h.01c.57-.18.88-.77.7-1.34Zm-1.6 16.54a1.07 1.07 0 1 0 0-2.13h-.02a1.07 1.07 0 1 0 .02 2.13Zm.1-31.55c.04-.59-.4-1.09-.99-1.13a1.07 1.07 0 1 0-.13 2.13c.58.04 1.1-.41 1.13-1ZM34.4 62.78c-.6 0-1.06.47-1.06 1.06a1.08 1.08 0 0 0 2.14 0c0-.59-.48-1.06-1.07-1.06h-.01ZM36.09 49c0-.6-.47-1.07-1.06-1.07h-.01a1.07 1.07 0 1 0 0 2.14c.6 0 1.08-.48 1.08-1.07Z" fill="#000"/></svg>