<svg width="76" height="76" fill="none" xmlns="http://www.w3.org/2000/svg"><path d="M74.67 60.75v13.92H21.52l-1.83-2.74a1.27 1.27 0 0 1 .35-1.76l2.74-1.82v-5.07l-4.01-10.02-1.05-2.63-1.42-2.85-2.2-4.4a25.65 25.65 0 0 1-2.7-11.46V23.5L5.13 21.7a4.11 4.11 0 0 1-2.95-3.44l-.31-2.52-.61-4.91h8.86l1.63-3.28A11.4 11.4 0 0 1 22.82 1.3l4.83.37a8.23 8.23 0 0 1 6.21 3.64l5.37 8.06 3.44 5.6c3.58 5.87 8.23 11.01 13.7 15.18l8.24 6.28a25.56 25.56 0 0 1 10.06 20.32Z" fill="#F3AF3E"/><path d="m24.86 10-1.1 7.16a8.8 8.8 0 0 0 8.7 10.13h1.71V10.36a3.31 3.31 0 0 0-3.31-3.32H28.3A3.48 3.48 0 0 0 24.86 10ZM60.63 67.62a1.27 1.27 0 0 1-1.15.73H49.1a3.53 3.53 0 0 0-3.53 3.53v2.8h-2.53v-2.8a6.07 6.07 0 0 1 6.06-6.06h7.7a22.28 22.28 0 0 1-4.9-13.93 1.27 1.27 0 1 1 2.53 0c0 4.61 1.62 9.08 4.57 12.62l1.47 1.76a1.27 1.27 0 0 1 .17 1.35Z" fill="#C38325"/><path d="M68.34 32.9a19.74 19.74 0 0 1-.16 2.54 20.28 20.28 0 0 1-31.47 14.23A20.25 20.25 0 1 1 68.35 32.9Z" fill="#C0F5F9"/><path d="M6.33 10.84v1.08a3.48 3.48 0 0 1-2.64 3.38l-1.81.45-.61-4.91h5.06ZM17.72 12.1a2.53 2.53 0 1 0 0-5.06 2.53 2.53 0 0 0 0 5.07Z" fill="#C38325"/><path d="M44.3 59.49h7.6v15.18h-7.6V59.5Z" fill="#428DC5"/><path d="M68.3 34.17a20.05 20.05 0 0 1-2.02 7.65 20.28 20.28 0 0 1-29.56 7.85 20.25 20.25 0 0 1-8.84-15.5H68.3Z" fill="#EEB58E"/><path d="M40.5 37.97h2.53v2.53H40.5v-2.53Z" fill="#F55648"/><path d="M40.5 44.3h2.53v2.53H40.5V44.3Z" fill="#B94137"/><path d="M51.9 44.3h2.52v2.53H51.9V44.3ZM56.95 44.3h2.53v2.53h-2.53V44.3Z" fill="#F55648"/><path d="M54.42 40.5h2.53v2.53h-2.53V40.5Z" fill="#B94137"/><path d="m30 69.24-1.8 1.8 1.96 2.93c.14.21.22.45.22.7h-2.8l-1.48-2.23a2.54 2.54 0 0 1 .32-3.19l1.42-1.43v-6.5l-9.07-8.06-1.05-2.63-1.42-2.85c.14.05.27.13.39.24L29.95 59.8a1.26 1.26 0 0 1 .43.94v7.6c0 .33-.14.65-.38.9ZM37.97 58.22v16.45h-2.53V58.6l-2.32-3.47a1.27 1.27 0 1 1 2.1-1.4l2.54 3.79c.13.2.2.45.2.7Z" fill="#C38325"/><path d="M68.3 34.17c-.02.43-.06.85-.12 1.27H28l-.12-1.27H68.3Z" fill="#BD9070"/><path d="M54.32 18.99a40.88 40.88 0 0 0-7.41 19.69l-.07.68a2.43 2.43 0 0 0 4.13 1.96l.1-.1a2.43 2.43 0 0 0 .72-1.72v-5.36c0-3.34.4-6.67 1.22-9.91l1.3-5.24ZM65.9 23.27l-.23.96a40.83 40.83 0 0 0-1.23 9.91v5.36c0 .64-.25 1.26-.7 1.71l-.1.1a2.43 2.43 0 0 1-4.14-1.95l.06-.68a40.85 40.85 0 0 1 5.52-16.8c.3.46.57.92.83 1.39ZM39.13 18.99a40.88 40.88 0 0 0-7.4 19.69l-.08.68a2.43 2.43 0 0 0 4.14 1.96l.1-.1a2.43 2.43 0 0 0 .71-1.72v-5.36c0-3.34.41-6.67 1.22-9.91l1.31-5.24Z" fill="#744630"/><path d="M69.61 32.9a21.54 21.54 0 0 0-21.52-21.5 21.54 21.54 0 0 0-21.51 21.5 21.55 21.55 0 0 0 16.45 20.92v5.67h10.13v-5.67A21.55 21.55 0 0 0 69.6 32.91Zm-21.52 19a18.98 18.98 0 1 1 0-37.98 18.98 18.98 0 0 1 0 37.97Z" fill="#428DC5"/><path d="M44.3 59.49h7.6v2.53h-7.6v-2.53Z" fill="#3775A4"/><path d="M17.72 12.1a2.53 2.53 0 1 0 0-5.06 2.53 2.53 0 0 0 0 5.07ZM40.5 37.97h2.53v2.53H40.5v-2.53ZM40.5 44.3h2.53v2.53H40.5V44.3ZM51.9 44.3h2.52v2.53H51.9V44.3ZM56.95 44.3h2.53v2.53h-2.53V44.3ZM54.42 40.5h2.53v2.53h-2.53V40.5Z" fill="#000"/><path d="M.94 18.42a5.37 5.37 0 0 0 3.86 4.5l5.33 1.53v7.47c0 4.18.97 8.3 2.83 12.03l3.6 7.2 4.96 12.38v4.14l-2.18 1.45a2.53 2.53 0 0 0-.7 3.51l1.82 2.75a1.26 1.26 0 0 0 1.06.56h53.15a1.27 1.27 0 0 0 1.27-1.27V60.75a26.86 26.86 0 0 0-8.13-19.23c.97-2.2 1.55-4.55 1.74-6.95.06-.2.08-.43.03-.64l.03-1.02c0-3.4-.8-6.77-2.36-9.8l.95-3.82a1.27 1.27 0 0 0-2.25-1.04c-.33.45-.64.91-.94 1.37a21.5 21.5 0 0 0-24.63-6.8l-.07-.11a.83.83 0 0 0-.02-.04L34.92 4.6a9.43 9.43 0 0 0-7.17-4.2L22.92.04A12.6 12.6 0 0 0 10.63 7L9.34 9.57H1.27A1.27 1.27 0 0 0 0 11l.93 7.42Zm26.9 49.4-1.42 1.43a2.54 2.54 0 0 0-.32 3.2l.64.96H22.2l-1.45-2.18 2.74-1.83a1.27 1.27 0 0 0 .57-1.05v-5.07c0-.16-.03-.32-.1-.47l-3.06-7.67 6.95 6.18v6.5Zm22.79 5.59h-5.07V60.75h5.07v12.66Zm1.26-15.19h-7.6V54.1c2.52.45 5.09.45 7.6 0v4.13Zm14.39-30.76c.53 1.77.8 3.6.8 5.45h-1.35c.06-1.83.24-3.65.55-5.45ZM65.7 39.5v-4.06h1.2c-.22 1.6-.64 3.17-1.25 4.67.03-.2.05-.4.05-.61Zm.88 4.39a24.33 24.33 0 0 1 6.82 16.86v12.66H53.16v-5.06h6.32a1.26 1.26 0 0 0 .98-2.08l-1.47-1.76c-2.62-3.13-4.19-7-4.5-11.06 5.07-1.59 9.38-5 12.1-9.56ZM53.16 65.8v-5.06c.18 0 .35-.04.52-.11.8 1.86 1.84 3.6 3.1 5.17h-3.62Zm11.47-23.7.16-.18a18.98 18.98 0 0 1-33.14.46 3.7 3.7 0 0 0 5.03-.18l.1-.1a3.67 3.67 0 0 0 1.09-2.61v-4.06h8.21a42.69 42.69 0 0 0-.43 3.11l-.07.68a3.7 3.7 0 0 0 6.29 2.98l.1-.1a3.67 3.67 0 0 0 1.08-2.61v-4.06h5.69a42.69 42.69 0 0 0-.43 3.11l-.07.68a3.7 3.7 0 0 0 6.29 2.98l.1-.1ZM32.9 39.48l.07-.68c.4-3.92 1.37-7.76 2.9-11.4a42.18 42.18 0 0 0-.54 6.74v5.36a1.16 1.16 0 0 1-.35.82l-.1.1a1.16 1.16 0 0 1-1.98-.94Zm15.19 0 .07-.68c.4-3.92 1.37-7.76 2.9-11.4a42.18 42.18 0 0 0-.55 6.74v5.36a1.16 1.16 0 0 1-.34.82l-.1.1a1.16 1.16 0 0 1-1.98-.94Zm15.08-5.34v5.36a1.16 1.16 0 0 1-.34.82l-.1.1a1.16 1.16 0 0 1-1.98-.94l.06-.68c.4-3.92 1.37-7.76 2.9-11.4a42.16 42.16 0 0 0-.54 6.74ZM38.06 13.88c-.92.49-1.79 1.03-2.62 1.64v-5.16l-.02-.44 2.64 3.96Zm10.03.04a18.97 18.97 0 0 1 15.5 8.03 42.25 42.25 0 0 0-4.33 10.96h-6.19c.1-2.83.48-5.63 1.17-8.37l1.3-5.25a1.27 1.27 0 0 0-2.25-1.04 42.2 42.2 0 0 0-6.68 14.66h-8.72c.08-2.83.47-5.63 1.16-8.37l1.31-5.25a1.27 1.27 0 0 0-2.26-1.04 42.2 42.2 0 0 0-6.68 14.66H29.1a19 19 0 0 1 18.98-18.99ZM30.38 39.73c-.54-1.38-.9-2.82-1.1-4.29h1.61a42.63 42.63 0 0 0-.43 3.11l-.07.68c-.01.17-.02.33-.01.5ZM28.2 24.71a7.5 7.5 0 0 1-3.2-7.36l1.11-7.16A2.2 2.2 0 0 1 28.3 8.3h2.56a2.04 2.04 0 0 1 2.05 2.05v7.32a21.6 21.6 0 0 0-4.7 7.03ZM7.6 12.11h2.54a1.27 1.27 0 0 0 1.13-.7l1.63-3.28a10.09 10.09 0 0 1 9.84-5.57l4.82.37a6.92 6.92 0 0 1 5.26 3.08l.2.3a4.58 4.58 0 0 0-2.15-.53H28.3a4.72 4.72 0 0 0-4.7 4.02l-1.1 7.16a10.03 10.03 0 0 0 4.86 10.21 21.47 21.47 0 0 0-.76 6.76c-.04.21-.03.43.04.64a21.57 21.57 0 0 0 15.13 18.9v6.02a1.27 1.27 0 0 0 1.26 1.26v12.66h-5.06V58.22c0-.25-.08-.5-.21-.7l-2.53-3.8a1.27 1.27 0 1 0-2.11 1.4l2.32 3.48v14.8h-5.65l-1.58-2.36 1.8-1.8c.23-.24.37-.56.37-.9v-7.59a1.27 1.27 0 0 0-.43-.94l-11.2-9.97-3.52-7.02a24.49 24.49 0 0 1-2.57-10.9V23.5a1.27 1.27 0 0 0-.92-1.22l-6.25-1.79a2.84 2.84 0 0 1-2.04-2.38l-.18-1.4.73-.19a4.74 4.74 0 0 0 3.59-4.42Zm-2.54 0a2.21 2.21 0 0 1-1.66 1.96l-.43.1-.26-2.07h2.35Z" fill="#000"/></svg>