<svg width="20" height="20" fill="none" xmlns="http://www.w3.org/2000/svg"><path d="M19.8 8.04H19V8h-9v4h5.65a6 6 0 1 1-1.67-6.48l2.83-2.83a10 10 0 1 0 3 5.35Z" fill="#FFC107"/><path d="m1.15 5.35 3.29 2.4a6 6 0 0 1 9.54-2.23l2.83-2.83A9.95 9.95 0 0 0 1.15 5.35Z" fill="#FF3D00"/><path d="M10 20c2.58 0 4.93-.99 6.7-2.6l-3.09-2.61a6 6 0 0 1-9.25-2.76l-3.26 2.5A10 10 0 0 0 10 20Z" fill="#4CAF50"/><path d="M19.8 8.04H19V8h-9v4h5.65a6.02 6.02 0 0 1-2.04 2.79l3.1 2.61C16.48 17.6 20 15 20 10c0-.67-.07-1.32-.2-1.96Z" fill="#1976D2"/></svg>