<svg width="78" height="78" fill="none" xmlns="http://www.w3.org/2000/svg"><path d="M39.61 5.71h-13.4a2.29 2.29 0 1 1 0-4.57h13.4a2.28 2.28 0 1 1 0 4.57ZM27.58 51.64h10.66v4.57H27.58v-4.57Z" fill="#716680"/><path d="M26.82 5.71H39v6.33H26.82V5.7Z" fill="#D6CFC4"/><path d="M34.43 5.71H39v6.33h-4.57V5.7Z" fill="#C4BEB4"/><path d="M68.86 30.62v32.6h-9.14v-32.3a5.49 5.49 0 0 0-5.49-5.48H45.1V16.3h9.44c7.9 0 14.32 6.41 14.32 14.32Z" fill="#716680"/><path d="M54.54 16.3h-4.57c7.9 0 14.32 6.41 14.32 14.32v32.6h4.57v-32.6c0-7.9-6.41-14.32-14.32-14.32Z" fill="#635870"/><path d="M55.83 76.86H22.17c-5.01 0-9.07-4.06-9.07-9.07h51.8c0 5-4.06 9.07-9.07 9.07Z" fill="#716680"/><path d="M60.33 67.8c0 5-4.06 9.06-9.07 9.06h4.57c5.01 0 9.07-4.06 9.07-9.07h-4.57Z" fill="#635870"/><path d="M42.05 51.64H23.77a3.05 3.05 0 0 1-3.05-3.04V15.08a3.05 3.05 0 0 1 3.05-3.04h18.28a3.05 3.05 0 0 1 3.05 3.04V48.6a3.05 3.05 0 0 1-3.05 3.04Z" fill="#E8E1D5"/><path d="M42.05 12.04h-4.57a3.05 3.05 0 0 1 3.05 3.04V48.6a3.05 3.05 0 0 1-3.05 3.04h4.57a3.05 3.05 0 0 0 3.05-3.04V15.08a3.05 3.05 0 0 0-3.05-3.04Z" fill="#D6CFC4"/><path d="M51.19 20.8a6.1 6.1 0 1 1-12.19 0 6.1 6.1 0 0 1 12.19 0Z" fill="#FFBD54"/><path d="M47.38 20.8a2.29 2.29 0 1 1-4.57 0 2.29 2.29 0 0 1 4.57 0Z" fill="#FF573D"/><path d="M74.57 67.8H3.43a2.29 2.29 0 1 1 0-4.58h71.14a2.28 2.28 0 1 1 0 4.57Z" fill="#E8E1D5"/><path d="M74.57 63.22H70a2.28 2.28 0 1 1 0 4.57h4.57a2.28 2.28 0 1 0 0-4.57Z" fill="#D6CFC4"/><path d="M45.1 24.23a3.43 3.43 0 1 0-.01-6.87 3.43 3.43 0 0 0 0 6.87Zm0-4.57a1.14 1.14 0 1 1 0 2.29 1.14 1.14 0 0 1 0-2.3Z" fill="#000"/><path d="M74.57 62.08H70v-.58a1.14 1.14 0 1 0-2.28 0v.58h-6.86V30.93a6.64 6.64 0 0 0-6.63-6.63h-2.8a7.19 7.19 0 0 0 .07-6.86h3.04a13.2 13.2 0 0 1 13.18 13.18v26.03a1.14 1.14 0 1 0 2.28 0V30.62c0-8.52-6.93-15.46-15.46-15.46h-4.92a7.2 7.2 0 0 0-3.64-1.54 4.2 4.2 0 0 0-3.93-2.73h-1.9V6.81A3.43 3.43 0 0 0 39.6 0h-13.4a3.43 3.43 0 0 0-.54 6.81v4.08h-1.9a4.2 4.2 0 0 0-4.2 4.2v4.4a1.14 1.14 0 0 0 2.3 0v-4.4c0-1.06.85-1.91 1.9-1.91h18.28c.53 0 1.02.22 1.37.58a7.25 7.25 0 0 0 .53 14.19V48.6a1.9 1.9 0 0 1-1.9 1.9H23.77a1.9 1.9 0 0 1-1.9-1.9V24.36a1.14 1.14 0 1 0-2.3 0V48.6a4.2 4.2 0 0 0 4.2 4.19h2.66v3.42c0 .64.52 1.15 1.15 1.15h10.66c.63 0 1.14-.51 1.14-1.15V52.8h2.67a4.2 4.2 0 0 0 4.19-4.2V27.96a7.2 7.2 0 0 0 3.2-1.37h4.8c2.39 0 4.34 1.95 4.34 4.35v31.15H3.43a3.43 3.43 0 0 0 0 6.86h8.6c.56 5.09 4.9 9.06 10.14 9.06h33.66c5.25 0 9.58-3.97 10.15-9.06h8.6a3.43 3.43 0 0 0 0-6.86ZM25.07 3.43c0-.63.5-1.14 1.14-1.14h13.4a1.14 1.14 0 0 1 0 2.28h-13.4c-.63 0-1.15-.51-1.15-1.14Zm2.89 7.46V6.86h9.9v4.03h-9.9Zm9.14 44.18h-8.38V52.8h8.38v2.28Zm3.04-34.27a4.96 4.96 0 1 1 4.97 4.95h-.02a4.96 4.96 0 0 1-4.95-4.95Zm34.43 45.85H20.72a1.14 1.14 0 1 0 0 2.29h42.95a7.93 7.93 0 0 1-7.84 6.77H22.17a7.93 7.93 0 0 1-7.84-6.77h1.54a1.14 1.14 0 1 0 0-2.29H3.43a1.14 1.14 0 0 1 0-2.28h71.14a1.14 1.14 0 0 1 0 2.28Z" fill="#000"/><path d="M24.68 48.37h16.46a1.14 1.14 0 1 0 0-2.29H24.68a1.14 1.14 0 1 0 0 2.29ZM24.68 44.1h16.46a1.14 1.14 0 1 0 0-2.28H24.68a1.14 1.14 0 1 0 0 2.28Z" fill="#000"/></svg>