<svg width="178" height="87" fill="none" xmlns="http://www.w3.org/2000/svg"><path d="M10.95 37.88 0 32.84l11.85-5.48c.34-16.38 16.16-19.93 22.73-19.3 6.56.65 25.65 12.35 17.96 36.27-2.62 8.15-2 29.24 28.58 27.3-2.3 4.32-13.08 22.28-48.18 10.86-9.73-3.17-23.6-18.85-21.99-44.6Z" fill="#FFBD54"/><path d="M110.82 32.7c.96-11.6-5.05-22.11-8.58-24.54-3.29-2.25-3.3 7.5-6.22 12.85a36.95 36.95 0 0 0-14.24-2.83c-5.06 0-9.87 1.02-14.21 2.82-2.92-5.35-2.94-15.1-6.22-12.84-3.52 2.42-9.52 12.92-8.58 24.5a30.37 30.37 0 0 0-5.74 17.72c0 17.78 15.56 30.96 34.75 30.96 19.19 0 34.75-13.18 34.75-30.96 0-6.53-2.1-12.6-5.71-17.68Z" fill="#78C0DE"/><path d="M109.12 52.41c.9-15.92 6.98-18.12 7.77-27.85C118 11.08 127.3 1.28 131.87.07c4.59-1.2-1.26 12.48 2.85 17.12 8.6-2.98 14.06-.44 18.37 4.23 4.32 4.66-1.31 9.12 7.13 7.92 3.48-.49 7.09-.37 10.11.4.29-.2.6-.35.93-.47 2.38-.82 5.06.66 5.98 3.32.35 1.01.4 2.04.19 2.98.1.51.15 1.06.11 1.64-.46 8.18-10.55 19.45-16.81 20.27-6.26.82-12.91-.26-13.08 12.27-.23 16.7-37.18 23.3-46.23 6.35 6.62-4.79 7.01-11.53 7.7-23.69Z" fill="#000"/><path d="M136.87 22.14c4.33.38 7.76-1.92 11.1-4.5a19.02 19.02 0 0 0-4.49.02c-2.5-4.53 4.75-14.61.8-14.47-3.57.13-12.7 5.02-16.92 13.88 3.06 2.06 5.49 5.29 9.51 5.07Z" fill="#000"/><path d="M38.14 34.44a3.66 3.66 0 0 0-1.58-.13 4 4 0 0 0-3.24 3l-3.47 12.97-6.92-11.5a4.14 4.14 0 0 0-4-1.95c-.52.07-1 .26-1.43.55a4.1 4.1 0 0 0-1.88 2.54c-.24 1-.06 2.03.48 2.9l11.7 19.64c.09.17.22.42.45.62a1.07 1.07 0 0 0 .27.22l.1.15.15.1c.05.05.11.09.18.13l.02.19.5.17.15.1 1.12.25.33.06.17-.02c.28.01.5-.02.62-.03.16-.03.38-.06.65-.15l.25-.04.2-.14 1.01-.65.21-.27c.06-.07.15-.16.24-.3.07-.08.13-.17.17-.27l.09-.15.02-.03a2.45 2.45 0 0 0 .46-.98L41 39.3a3.8 3.8 0 0 0-.33-2.94 4.09 4.09 0 0 0-2.53-1.91ZM81.58 34.28c-9.32.16-16.82 8.1-16.72 17.72.24 9.69 7.84 17.2 17.32 17.1 5-.08 9.03-1.66 12.34-4.8a3.91 3.91 0 0 0 1.27-2.8 4.77 4.77 0 0 0-1.27-3.27 4.22 4.22 0 0 0-3.26-1.22 4.97 4.97 0 0 0-3.46 1.4c-1.1.82-3 1.37-4.88 1.4-.26 0-.53 0-.78-.02-1.97-.13-4.2-1.12-5.31-2.34l-.09-.1a5.81 5.81 0 0 1-1.3-1.88l18.59-.33c2.42-.04 4.29-1.54 4.6-3.68.07-.27.08-.56.07-.9v-.4c-.73-9.36-7.92-16.04-17.12-15.88Zm7.64 12.78-14.18.25a7.89 7.89 0 0 1 6.67-4.22 9.98 9.98 0 0 1 7.5 3.97ZM138.07 49.68a4.73 4.73 0 0 0 5.16-4.12 4.68 4.68 0 0 0-4.2-5.1l-.23-.03.78-7.53a4.59 4.59 0 0 0-4.13-5.1 4.62 4.62 0 0 0-5.16 4.13l-.78 7.53-.49-.05a4.65 4.65 0 0 0-.96 9.23l.48.05-1.63 15.66a8.07 8.07 0 0 0 7.17 8.85 4.6 4.6 0 0 0 5.1-4.13 4.63 4.63 0 0 0-2.87-4.85l1.52-14.56.24.02Z" fill="#fff"/></svg>