<svg width="62" height="77" fill="none" xmlns="http://www.w3.org/2000/svg"><path d="M52.45 67.8V56.29h7.67v14.07A5.12 5.12 0 0 1 55 75.47h-2.55V67.8Z" fill="#F6BB92"/><path d="m56.28 44.77 1.08-2.56.96-2.27a6.66 6.66 0 0 0-1.43-7.29 6.66 6.66 0 0 1-1.95-4.7v-6.2H26.86v6.2c0 1.76-.7 3.45-1.95 4.7a6.66 6.66 0 0 0-1.43 7.3l1.01 2.4 31.8 2.42Z" fill="#834B10"/><path d="M60.12 50a7.68 7.68 0 0 0-6.41-7.58l-1.26-.2-6.61-1.1-4.9 4.93-4.97-4.97-9.1 1.13v33.26h25.58V65.24a7.24 7.24 0 0 0 1.01-8.95h6.66v-6.3Z" fill="#85BC94"/><path d="M55 23.03H26.86v-7.68a14.07 14.07 0 0 1 28.14 0v7.68Z" fill="#834B10"/><path d="M51.17 19.19h-1.28V11.5H31.98v7.68H30.7a3.84 3.84 0 1 0 0 7.67h1.28v1.28a8.95 8.95 0 1 0 17.9 0v-1.28h1.29a3.84 3.84 0 1 0 0-7.67Z" fill="#F6BB92"/><path d="M39.65 50.94v24.53H11.03a24.7 24.7 0 0 1 3.31-4.1l.1-.1a25.35 25.35 0 0 0 5.39-7.96l1.37-3.19.54-1.28h-3.68a5.12 5.12 0 0 1-4.96-3.87l-.63-2.52-.16-.66a2.56 2.56 0 0 1 2.48-3.18h4.4c.82-2.48 2.5-4.58 4.74-5.92l.56-.33a9.98 9.98 0 0 1 9.6-.37l.05.03a9.97 9.97 0 0 1 5.51 8.92Z" fill="#BD9070"/><path d="M39.65 51.17v3.63a3.84 3.84 0 1 1-7.67 0V48.6h5.11l2.56 2.56ZM27.77 57.2l-2.56 2.55c-.24.24-.57.37-.9.37H21.2l.54-1.28h-3.68a5.1 5.1 0 0 1-3.38-1.28h9.1l2.18-2.18a1.28 1.28 0 0 1 1.8 1.81ZM16.63 48.61v1.55a2.3 2.3 0 0 1-2.3 2.29h-1.86l-.16-.66a2.56 2.56 0 0 1 2.48-3.18h1.84ZM20.6 72.31a1.28 1.28 0 0 1-1.03-2.04 23.61 23.61 0 0 0 3.52-6.71 1.28 1.28 0 1 1 2.43.8 26.16 26.16 0 0 1-3.9 7.44 1.28 1.28 0 0 1-1.02.51Z" fill="#9E785D"/><path d="M30.7 19.19a8.72 8.72 0 0 0 5.34-5.04l1.05-2.64-6.4-1.28v8.96ZM37.1 11.51l.14.23a16.73 16.73 0 0 0 13.93 7.45v-8.96l-14.08 1.28ZM36.14 23.35a1.6 1.6 0 1 0 0-3.2 1.6 1.6 0 0 0 0 3.2ZM45.73 23.35a1.6 1.6 0 1 0 0-3.2 1.6 1.6 0 0 0 0 3.2ZM40.93 28.14h-2.56a1.28 1.28 0 0 1-1.14-1.85l2.56-5.12a1.28 1.28 0 1 1 2.29 1.15l-1.64 3.26h.5a1.28 1.28 0 0 1 0 2.56Z" fill="#834B10"/><path d="M48.6 52.45a1.28 1.28 0 0 1-1.27-1.28V42.2a1.28 1.28 0 1 1 2.56 0v8.96a1.28 1.28 0 0 1-1.28 1.28Z" fill="#C3C3C3"/><path d="M48.6 58.84a3.84 3.84 0 1 0 0-7.67 3.84 3.84 0 0 0 0 7.67Z" fill="#E4E4E2"/><path d="M48.6 56.29a1.28 1.28 0 1 0 0-2.56 1.28 1.28 0 0 0 0 2.56Z" fill="#C3C3C3"/><path d="M53.72 75.47H34.54a3.84 3.84 0 0 1 0-7.67h1.28a2.56 2.56 0 0 1 2.55-2.56h.22c.68 0 1.33.27 1.81.75l1.81 1.8h11.51v7.68ZM11.17 69.54a3.2 3.2 0 0 0 2.05 4.38l4.92 1.4a3.84 3.84 0 1 0 2.09-7.4L19 67.59a2.56 2.56 0 0 0-1.77-3.16l-.21-.06a2.56 2.56 0 0 0-1.94.23 7.77 7.77 0 0 0-3.3 3.58l-.6 1.37Z" fill="#F6BB92"/><path d="M4.51 34.35c.85 0 1.67.34 2.27.94L8.4 36.9l1.62-1.62a3.21 3.21 0 0 1 5.38 1.5A3.93 3.93 0 0 1 13.77 41L8.4 44.58 3.03 41a3.93 3.93 0 0 1-1.64-4.22 3.21 3.21 0 0 1 3.12-2.43Z" fill="#DC4D41"/><path d="M30.7 19.19h1.28v7.67H30.7V19.2ZM49.89 19.19h1.28v7.67h-1.28V19.2Z" fill="#EEB58E"/><path d="m35.97 41.08 4.96 4.97 4.9-4.94a1.28 1.28 0 0 1-1.06-1.26v-4.03h-7.68v3.99a1.28 1.28 0 0 1-1.12 1.27Z" fill="#F6BB92"/><path d="M40.93 37.1a8.95 8.95 0 0 1-8.95-8.96v-1.28h17.9v1.28a8.95 8.95 0 0 1-8.95 8.96Z" fill="#85BC94"/><path d="M25.58 51.17a1.28 1.28 0 1 0 0-2.56 1.28 1.28 0 0 0 0 2.56Z" fill="#9E785D"/><path d="M36.14 23.35a1.6 1.6 0 1 0 0-3.2 1.6 1.6 0 0 0 0 3.2ZM45.73 23.35a1.6 1.6 0 1 0 0-3.2 1.6 1.6 0 0 0 0 3.2ZM48.6 56.29a1.28 1.28 0 1 0 0-2.56 1.28 1.28 0 0 0 0 2.56Z" fill="#000"/><path d="m58.32 43.24 1.18-2.8a7.91 7.91 0 0 0-1.7-8.7 5.38 5.38 0 0 1-1.58-3.8l.06-12.59a15.35 15.35 0 0 0-30.7 0v12.6c0 1.42-.57 2.79-1.57 3.8a7.94 7.94 0 0 0-1.71 8.7l.59 1.39a12.2 12.2 0 0 0-4.59 5.5H14.8a3.81 3.81 0 0 0-3.84 3.89c0 .3.04.59.11.87l.17.66.63 2.52a6.39 6.39 0 0 0 6.2 4.84h1.74l-1.15 2.69-.3.69c-.25-.13-.5-.23-.77-.31l-.21-.06a3.81 3.81 0 0 0-2.92.34 9.1 9.1 0 0 0-3.83 4.17l-.61 1.37a4.47 4.47 0 0 0 .66 4.72l-.72 1.05a1.28 1.28 0 0 0 1.08 1.97H55a6.4 6.4 0 0 0 6.4-6.4V50a8.95 8.95 0 0 0-3.08-6.76Zm.52 6.75v5.02h-4.7a8.55 8.55 0 0 0-.44-.54 5.13 5.13 0 0 0-3.81-4.42v-6.97l2.34.4 1.27.2A6.4 6.4 0 0 1 58.84 50Zm-7.38 14.44-.02.02-.06.08-.01.02-.05.09-.01.01-.05.1v.01l-.04.1v.02l-.03.11v.03l-.02.1v1.4h-8.43l-1.43-1.43a3.86 3.86 0 0 0-.38-.33V50.94c0-1.3-.22-2.58-.65-3.8a1.27 1.27 0 0 0 1.68-.32l3.38-4.51.29.06 1.7.29v7.4a5.12 5.12 0 1 0 5.51 7.81 5.95 5.95 0 0 1-1.38 6.56ZM30.7 20.47v5.11a2.56 2.56 0 0 1 0-5.11Zm23.02 2.56a2.56 2.56 0 0 1-2.55 2.55v-5.11a2.56 2.56 0 0 1 2.55 2.56Zm-5.11 2.55h-8.17l1.64-3.26a1.28 1.28 0 1 0-2.3-1.15l-2.2 4.41h-4.32v-6.2a10 10 0 0 0 3.97-4.75l.2-.52a17.85 17.85 0 0 0 11.18 6.17v5.3Zm-10.24 2.56h10.24a7.68 7.68 0 0 1-15.35 0h5.1Zm2.56 10.24c.87 0 1.73-.11 2.56-.33v1.8c0 .2.02.38.07.57l-2.63 3.5-2.63-3.51c.05-.2.07-.4.07-.6v-1.76c.84.22 1.7.33 2.56.33ZM38.37 54.8a2.56 2.56 0 1 1-5.11 0v-4.91h3.3l1.81 1.8v3.1Zm12.8.2a2.56 2.56 0 1 1-5.12 0 2.56 2.56 0 0 1 5.12 0Zm5.97-15.55-1 2.39a8.92 8.92 0 0 0-2.22-.68l-1.26-.2-6.61-1.1V37a10.24 10.24 0 0 0 5.12-8.86c.87 0 1.73-.22 2.49-.65v.45a7.93 7.93 0 0 0 2.33 5.62 5.36 5.36 0 0 1 1.15 5.89Zm-16.2-36.9a12.8 12.8 0 0 1 12.78 12.8v3.25a5.08 5.08 0 0 0-2.55-.7c-.4 0-.8 0-1.19-.04a15.35 15.35 0 0 1-11.67-6.83l-.15-.23a1.28 1.28 0 0 0-2.25.24l-1.06 2.64a7.43 7.43 0 0 1-4.39 4.24c-.82.03-1.61.27-2.32.68v-3.25a12.8 12.8 0 0 1 12.8-12.8Zm-15.13 31a7.89 7.89 0 0 0 2.33-5.6v-.5c.78.46 1.66.7 2.56.7A10.24 10.24 0 0 0 35.82 37v2.8l-2.87.36-.74-.2a11.25 11.25 0 0 0-7.07.63l-.48-1.14a5.38 5.38 0 0 1 1.15-5.9ZM14.8 49.9h.56v.27a1.01 1.01 0 0 1-1.01 1h-.83v-.01l.01-.16.01-.05.05-.18v-.02a1.3 1.3 0 0 1 1.2-.85Zm9.51 10.23a1.28 1.28 0 0 0 .9-.37l2.57-2.56a1.28 1.28 0 0 0-1.81-1.8l-2.19 2.17h-5.7a3.83 3.83 0 0 1-3.73-2.9l-.23-.93h.23a3.57 3.57 0 0 0 3.57-3.57v-.27h1.28a1.28 1.28 0 0 0 1.2-.88 9.65 9.65 0 0 1 4.2-5.22l.56-.34a8.7 8.7 0 0 1 8.35-.32l.07.03a8.6 8.6 0 0 1 4.08 4.3 1.28 1.28 0 0 0-.56-.13h-5.11a1.28 1.28 0 0 0-1.28 1.28v6.19a5.1 5.1 0 0 0 7.67 4.43v4.73a3.84 3.84 0 0 0-3.62 2.56h-.21a5.11 5.11 0 0 0-4.43 7.67h-6.5a5.12 5.12 0 0 0-.1-5.3c.81-1.44 1.48-2.96 2-4.52a1.28 1.28 0 0 0-2.42-.81c-.4 1.22-.91 2.4-1.51 3.54a5.1 5.1 0 0 0-1-.4l-.21-.06a3.8 3.8 0 0 0-.21-1.03c.3-.59.59-1.2.84-1.8l1.59-3.69h1.71Zm-11.96 9.94.62-1.36a6.53 6.53 0 0 1 2.74-3 1.27 1.27 0 0 1 .97-.1l.21.05a1.28 1.28 0 0 1 .89 1.58 1.28 1.28 0 0 0 .88 1.58l1.23.35a2.56 2.56 0 0 1-1.39 4.92l-4.93-1.39a1.91 1.91 0 0 1-1.22-2.63Zm46.5.3A3.84 3.84 0 0 1 55 74.19H34.54a2.56 2.56 0 1 1 0-5.11h1.28a1.28 1.28 0 0 0 1.27-1.28 1.28 1.28 0 0 1 1.28-1.28h.22c.34 0 .67.14.9.37l1.82 1.81a1.28 1.28 0 0 0 .9.38h10.24a1.28 1.28 0 0 0 1.27-1.28v-2.05a8.52 8.52 0 0 0 1.73-8.19h3.4v12.8Z" fill="#000"/><path d="M16.64 36.47a4.5 4.5 0 0 0-7.53-2.09l-.71.72-.71-.72a4.5 4.5 0 0 0-7.54 2.09 5.22 5.22 0 0 0 2.17 5.6l5.37 3.58a1.28 1.28 0 0 0 1.42 0l5.37-3.59a5.22 5.22 0 0 0 2.16-5.59Zm-3.58 3.47-4.66 3.1-4.67-3.1a2.65 2.65 0 0 1-1.1-2.85 1.93 1.93 0 0 1 3.25-.9l1.61 1.62a1.28 1.28 0 0 0 1.81 0l1.62-1.62a1.93 1.93 0 0 1 3.24.9 2.65 2.65 0 0 1-1.1 2.85ZM25.58 51.17a1.28 1.28 0 1 0 0-2.56 1.28 1.28 0 0 0 0 2.56Z" fill="#000"/></svg>