<svg width="76" height="76" fill="none" xmlns="http://www.w3.org/2000/svg"><path d="M74.67 18.98v37.97H56.95v17.72H18.98V56.95H1.27V18.98h17.71V1.27h37.97v17.71h17.72Z" fill="#6B9777"/><path d="M72.14 18.98v37.97H54.42v17.72H18.98V56.95H1.27V18.98h17.71V1.27h35.44v17.71h17.72Z" fill="#85BC94"/><path d="M20.25 50.63h-1.27a4.86 4.86 0 0 1-4.71-3.69l-1.61-6.44-.84.84a8.37 8.37 0 0 0-2.37 7.1 11.5 11.5 0 0 0 4.49 7.58c.8.6 1.8.93 2.81.93h3.5v-6.33Z" fill="#744630"/><path d="m53.16 72.14-1.27 2.53H19V55.96c0-2.7.43-5.37 1.28-7.93l.69-2.06c1.2-3.6 3.21-6.86 5.89-9.54l.1-.1a25.09 25.09 0 0 0 5.33-7.86l1.35-3.16.54-1.26h-3.64a5.07 5.07 0 0 1-4.91-3.84l-.62-2.5-.17-.64a2.53 2.53 0 0 1 2.46-3.15h4.35a10.81 10.81 0 0 1 4.7-5.85l.55-.34a9.87 9.87 0 0 1 9.49-.36l.06.03a9.87 9.87 0 0 1 5.45 8.82v54.66l1.27 1.26Z" fill="#F3AF3E"/><path d="M25.95 74.67a5.7 5.7 0 0 1-5.7-5.7v-.94a5.72 5.72 0 0 1 2.28-4.56 7 7 0 0 0 2.78-5.57v-.95a1.27 1.27 0 1 1 2.53 0v.95a9.54 9.54 0 0 1-3.8 7.6 3.18 3.18 0 0 0-1.26 2.53v.95a3.16 3.16 0 0 0 6.33 0v-.64a3.8 3.8 0 0 1 3.8-3.8 1.27 1.27 0 1 1 0 2.54 1.27 1.27 0 0 0-1.27 1.26v.64a5.7 5.7 0 0 1-5.7 5.7Z" fill="#CD761F"/><path d="m53.16 72.14-1.27 2.53H38.35a7.98 7.98 0 0 1-7.98-7.98c0-1.42.2-2.84.6-4.2l.18-.67a16.15 16.15 0 0 1 7.23-9.42 3.43 3.43 0 0 0 1.3-1.4l2.09-4.17h-4.29a3.3 3.3 0 0 1-3.3-3.31V40.5h3.79l.31-.94a5.48 5.48 0 0 1 3.87-3.59l2.15-.53v-3.8l3.7 2.77c.9.68 1.62 1.55 2.12 2.55a16.75 16.75 0 0 1 1.77 7.5v26.41l1.27 1.27Z" fill="#E08122"/><path d="m43.93 46.46-1.27 1.26c-.24.24-.56.37-.9.37h-.63l.64-1.26h-4.29a3.3 3.3 0 0 1-2.52-1.17c.15-.07.31-.1.48-.1h5.8l.9-.9a1.27 1.27 0 0 1 1.79 1.8ZM46.83 58.22a1.27 1.27 0 0 0-1.27 1.26v9.16c-.48-.2-1-.3-1.52-.3h-1.17l.17-.26a5.53 5.53 0 0 0-4.6-8.6h-.47a1.27 1.27 0 1 0 0 2.54h.46a3 3 0 0 1 2.5 4.66l-1.48 2.23a1.27 1.27 0 0 0 1.05 1.97h3.54a1.52 1.52 0 0 1 1.52 1.51v2.28h2.53V59.48a1.27 1.27 0 0 0-1.26-1.26Z" fill="#CD761F"/><path d="M51.9 16.45v3.6a3.8 3.8 0 1 1-7.6 0v-6.13h5.06l2.53 2.53Z" fill="#744630"/><path d="m40.13 22.41-2.53 2.53c-.24.24-.56.37-.9.37h-3.07l.54-1.26h-3.64c-1.17 0-2.3-.4-3.21-1.15.16-.08.34-.12.52-.12h8.34l2.16-2.16a1.27 1.27 0 1 1 1.79 1.8ZM29.1 13.92v2.53a1.27 1.27 0 0 1-1.26 1.27H25l-.17-.65a2.53 2.53 0 0 1 2.46-3.15h1.82ZM33.04 37.37a1.27 1.27 0 0 1-1.02-2.02 23.35 23.35 0 0 0 3.48-6.64 1.27 1.27 0 0 1 2.4.8 25.88 25.88 0 0 1-3.85 7.36 1.26 1.26 0 0 1-1.01.5ZM24.05 55.69a1.27 1.27 0 0 1-1.27-1.27c.01-4.38 1.43-8.64 4.05-12.15a1.26 1.26 0 1 1 2.03 1.52 17.83 17.83 0 0 0-3.55 10.63 1.27 1.27 0 0 1-1.26 1.27ZM37.97 16.45a1.27 1.27 0 1 0 0-2.53 1.27 1.27 0 0 0 0 2.53Z" fill="#D18D28"/><path d="M43.03 41.77a1.27 1.27 0 1 0 0-2.54 1.27 1.27 0 0 0 0 2.54Z" fill="#CD761F"/><path d="M74.67 17.72H58.22V1.27A1.27 1.27 0 0 0 56.95 0H18.98a1.27 1.27 0 0 0-1.26 1.27v16.45H1.27A1.27 1.27 0 0 0 0 18.98v37.97a1.27 1.27 0 0 0 1.27 1.27h16.45v16.45a1.27 1.27 0 0 0 1.26 1.27h37.97a1.27 1.27 0 0 0 1.27-1.27V58.22h16.45a1.27 1.27 0 0 0 1.27-1.27V18.98a1.27 1.27 0 0 0-1.27-1.26ZM17.72 55.69h-.97c-.74 0-1.46-.24-2.05-.69a10.25 10.25 0 0 1-4-6.74 7.14 7.14 0 0 1 1.3-5.19l1.04 4.18a6.12 6.12 0 0 0 5 4.57c-.2 1.28-.3 2.57-.32 3.87Zm2.53 17.72v-4.43a5.66 5.66 0 0 0 2.12 4.43h-2.12Zm8.86-5.07v.64a3.16 3.16 0 0 1-6.33 0v-.95a3.18 3.18 0 0 1 1.27-2.53 9.5 9.5 0 0 0 3.8-7.6v-.95a1.27 1.27 0 0 0-2.54 0v.95a6.96 6.96 0 0 1-2.78 5.57 5.72 5.72 0 0 0-2.28 4.56V55.96c0-1.7.18-3.4.54-5.07l.01-.02c.18-.82.4-1.64.67-2.44l.69-2.06c1.14-3.4 3.05-6.5 5.59-9.04l.09-.1a26.29 26.29 0 0 0 5.6-8.26l1.57-3.66h1.7a1.27 1.27 0 0 0 .89-.37l2.53-2.53a1.27 1.27 0 1 0-1.8-1.79l-2.15 2.16h-5.65a3.79 3.79 0 0 1-3.68-2.88l-.23-.92h1.22a2.53 2.53 0 0 0 2.54-2.53V15.2h1.26a1.27 1.27 0 0 0 1.2-.87c.72-2.16 2.2-4 4.15-5.17l.55-.33a8.6 8.6 0 0 1 8.26-.33l.07.04c1.8.9 3.24 2.4 4.04 4.26a1.27 1.27 0 0 0-.55-.13H44.3a1.27 1.27 0 0 0-1.27 1.26v6.12a5.05 5.05 0 0 0 7.6 4.39v10.92a8.53 8.53 0 0 0-1.88-1.95l-3.7-2.77a1.27 1.27 0 0 0-2.02 1.01v2.8l-1.19.3a6.71 6.71 0 0 0-4.76 4.42l-.02.07h-2.89a1.27 1.27 0 0 0-1.26 1.27v3.02a4.58 4.58 0 0 0 4.57 4.57h2.24l-1.17 2.34c-.18.37-.47.68-.82.89a17.37 17.37 0 0 0-7.8 10.16l-.18.65a16.6 16.6 0 0 0-.59 5.57c-.03.21-.05.43-.05.64Zm-3.09-51.89v-.02l.02-.16v-.04l.05-.18v-.02l.07-.15.03-.05.1-.16a1.26 1.26 0 0 1 1-.48h.55v1.26h-1.82Zm24.6.53v3.06a2.53 2.53 0 1 1-5.06 0V15.2h3.28l1.78 1.79ZM29.52 73.4c.5-.4.92-.89 1.26-1.43.36.52.77 1 1.23 1.43h-2.49Zm21.59 0h-3.02V59.48a1.27 1.27 0 0 0-2.53 0v9.16c-.48-.2-1-.3-1.52-.3h-1.17l.17-.26a5.53 5.53 0 0 0-4.6-8.6h-.47a1.27 1.27 0 1 0 0 2.54h.46a3 3 0 0 1 2.5 4.66l-1.48 2.23a1.26 1.26 0 0 0 1.05 1.97h3.54a1.52 1.52 0 0 1 1.52 1.51v1.02h-7.2a6.72 6.72 0 0 1-6.72-6.72c0-1.3.18-2.6.54-3.86l.19-.66a14.85 14.85 0 0 1 6.66-8.68 4.68 4.68 0 0 0 1.78-1.93l2-3.98 1.12-1.12a1.27 1.27 0 1 0-1.8-1.8l-.89.9h-3.76a2.04 2.04 0 0 1-2.04-2.04v-1.75h2.53a1.27 1.27 0 0 0 1.2-.87l.31-.94a4.2 4.2 0 0 1 2.98-2.76l2.14-.53a1.27 1.27 0 0 0 .96-1.23v-1.27l1.67 1.26a6 6 0 0 1 1.76 2.1 15.56 15.56 0 0 1 1.63 6.92v26.42a1.27 1.27 0 0 0 .38.9l.62.62-.51 1.02Zm22.3-17.72H56.95a1.27 1.27 0 0 0-1.26 1.26v16.46h-1.75l.35-.7a1.27 1.27 0 0 0-.24-1.46l-.9-.9V16.22a11.07 11.07 0 0 0-6.14-9.95l-.06-.03a11.13 11.13 0 0 0-10.7.4l-.56.34a12.08 12.08 0 0 0-4.92 5.68h-3.48a3.8 3.8 0 0 0-3.68 4.71l.78 3.15a6.32 6.32 0 0 0 6.14 4.8h1.72l-1.14 2.65a23.75 23.75 0 0 1-5.06 7.47l-.1.1a25.77 25.77 0 0 0-6.2 10.03l-.68 2.06c-.19.57-.36 1.13-.5 1.7a3.59 3.59 0 0 1-3.08-2.7l-1.6-6.44a1.26 1.26 0 0 0-2.13-.59l-.84.84a9.68 9.68 0 0 0-2.72 8.18c.38 2.66 1.59 5.13 3.46 7.07H2.53V20.25h16.45a1.27 1.27 0 0 0 1.27-1.27V2.53h35.44v16.45a1.27 1.27 0 0 0 1.26 1.27h16.46v35.44Z" fill="#000"/><path d="M32.28 37.12a1.26 1.26 0 0 0 1.77-.25 25.88 25.88 0 0 0 3.85-7.36 1.27 1.27 0 0 0-2.4-.8 23.35 23.35 0 0 1-3.48 6.64 1.27 1.27 0 0 0 .26 1.77ZM28.6 42.02a1.27 1.27 0 0 0-1.77.25 20.38 20.38 0 0 0-4.05 12.15 1.27 1.27 0 0 0 2.53 0c.01-3.83 1.25-7.56 3.55-10.63a1.27 1.27 0 0 0-.26-1.77ZM37.97 16.45a1.27 1.27 0 1 0 0-2.53 1.27 1.27 0 0 0 0 2.53ZM43.03 41.77a1.27 1.27 0 1 0 0-2.54 1.27 1.27 0 0 0 0 2.54Z" fill="#000"/></svg>