<svg width="87" height="78" fill="none" xmlns="http://www.w3.org/2000/svg"><path d="M1.44 7.22h83.78v66.45a2.89 2.89 0 0 1-2.89 2.89h-78a2.89 2.89 0 0 1-2.89-2.9V7.23Z" fill="#EBEBEB"/><path d="M1.44 7.22h83.78v11.56H1.44V7.22Z" fill="#428DC5"/><path d="M34.17 34.66A14.45 14.45 0 1 1 9.13 20.22a14.45 14.45 0 0 1 25.04 14.44Z" fill="#8DC79D"/><path d="M32.92 33.94a13 13 0 1 1-22.52-13 13 13 0 0 1 22.52 13Z" fill="#AAE5C8"/><path d="M34.17 34.66a14.58 14.58 0 0 1-2.19 2.9h-7.43a4.34 4.34 0 0 1-4.33-4.34v-2.89h2.89v2.89a1.44 1.44 0 0 0 1.44 1.44h9.62Z" fill="#428DC5"/><path d="M20.22 56.33a4.33 4.33 0 1 0 0-8.66 4.33 4.33 0 0 0 0 8.66ZM20.22 70.78a4.33 4.33 0 1 0 0-8.67 4.33 4.33 0 0 0 0 8.67Z" fill="#DBDBDB"/><path d="M20.22 53.44a1.44 1.44 0 0 1-1.02-.42l-2.89-2.89a1.44 1.44 0 1 1 2.04-2.04l1.98 1.97 6.21-4.97a1.44 1.44 0 1 1 1.8 2.26l-7.22 5.78c-.25.2-.57.31-.9.31Z" fill="#DC4D41"/><path d="M33.22 47.67h2.9v2.89h-2.9v-2.9ZM39 47.67h15.89v2.89H39v-2.9ZM33.22 53.44h8.67v2.9h-8.67v-2.9ZM44.78 53.44h8.66v2.9h-8.66v-2.9ZM46.22 37.56a4.33 4.33 0 1 0 0-8.67 4.33 4.33 0 0 0 0 8.67Z" fill="#DBDBDB"/><path d="M46.22 34.67a1.44 1.44 0 0 1-1.02-.43l-2.89-2.89a1.44 1.44 0 1 1 2.04-2.04l1.98 1.98 6.21-4.97a1.45 1.45 0 0 1 1.8 2.25l-7.22 5.78c-.25.2-.57.32-.9.32Z" fill="#DC4D41"/><path d="M59.22 28.89h2.9v2.89h-2.9v-2.9ZM65 28.89h13v2.89H65v-2.9ZM59.22 34.67h11.56v2.89H59.22v-2.9ZM73.67 34.67H78v2.89h-4.33v-2.9ZM33.22 62.11h2.9V65h-2.9v-2.89ZM39 62.11h15.89V65H39v-2.89ZM33.22 67.89h10.11v2.89h-10.1v-2.9ZM46.22 67.89H65v2.89H46.22v-2.9ZM37.56 4.33a2.89 2.89 0 0 0-5.78 0v5.78a2.89 2.89 0 1 0 5.78 0V4.33ZM20.22 4.33a2.89 2.89 0 0 0-5.78 0v5.78a2.89 2.89 0 1 0 5.78 0V4.33ZM54.89 4.33a2.89 2.89 0 0 0-5.78 0v5.78a2.89 2.89 0 1 0 5.78 0V4.33ZM72.22 4.33a2.89 2.89 0 0 0-5.78 0v5.78a2.89 2.89 0 1 0 5.78 0V4.33Z" fill="#DBDBDB"/><path d="M78.97 60.03a14.45 14.45 0 1 1-27.95-7.37 14.45 14.45 0 0 1 27.95 7.37Z" fill="#FBB540"/><path d="M78.97 60.03a14.48 14.48 0 0 1-13.58 10.75H65l-2.89-8.67h-3.4a2.89 2.89 0 0 1-2.84-2.32l-.98-4.9 4.33-1.45 2.9-4.33h8.66l8.19 10.92Z" fill="#DA922A"/><path d="M75.11 54.89v5.78a2.89 2.89 0 0 1-5.78 0V49.1h1.45l4.33 5.78ZM62.11 54.89H65v2.89h-2.89v-2.9Z" fill="#834B10"/><path d="M21.66 31.77A5.78 5.78 0 0 1 15.9 26v-2.9a1.44 1.44 0 0 1 .8-1.28l2.88-1.45 1.3 2.59-2.1 1.04v2a2.89 2.89 0 1 0 5.78 0v-2l-2.09-1.04 1.3-2.59 2.88 1.45a1.45 1.45 0 0 1 .8 1.29V26a5.78 5.78 0 0 1-5.78 5.77Z" fill="#4799CF"/><path d="M85.22 5.78H73.67V4.33a4.33 4.33 0 0 0-8.67 0v1.45h-8.67V4.33a4.33 4.33 0 1 0-8.66 0v1.45H39V4.33a4.33 4.33 0 1 0-8.67 0v1.45h-8.66V4.33a4.33 4.33 0 0 0-8.67 0v1.45H1.44A1.44 1.44 0 0 0 0 7.22v66.45A4.34 4.34 0 0 0 4.33 78h78a4.34 4.34 0 0 0 4.34-4.33V7.22a1.44 1.44 0 0 0-1.45-1.44ZM67.9 4.33a1.44 1.44 0 0 1 2.89 0v5.78a1.44 1.44 0 0 1-2.9 0V4.33Zm-17.33 0a1.44 1.44 0 1 1 2.88 0v5.78a1.44 1.44 0 1 1-2.88 0V4.33Zm-17.34 0a1.44 1.44 0 0 1 2.9 0v5.78a1.44 1.44 0 0 1-2.9 0V4.33Zm1.18 20.52a12.91 12.91 0 0 1-1.9 9.77c0 .02-.02.03-.03.04h-7.92a1.45 1.45 0 0 1-1.44-1.44v-1.63a5.79 5.79 0 0 0 4.33-5.6v-2.88a1.45 1.45 0 0 0-.8-1.3l-2.89-1.44-1.29 2.59 2.1 1.04v2a2.89 2.89 0 0 1-5.79 0v-2l2.1-1.04-1.3-2.59-2.89 1.45a1.44 1.44 0 0 0-.8 1.29V26a5.79 5.79 0 0 0 4.34 5.6v1.62a4.34 4.34 0 0 0 4.33 4.33h5.3a13 13 0 1 1 4.55-12.7ZM15.9 4.33a1.44 1.44 0 0 1 2.89 0v5.78a1.44 1.44 0 0 1-2.9 0V4.33Zm-13 4.34H13v1.44a4.32 4.32 0 0 0 1.4 3.2 15.86 15.86 0 0 0-4.98 4.02H2.89V8.67Zm80.89 65a1.45 1.45 0 0 1-1.45 1.44h-78a1.45 1.45 0 0 1-1.44-1.44V20.22h4.63a15.88 15.88 0 1 0 28.3 0h47.96v53.45Zm0-56.34H33.92a15.94 15.94 0 0 0-12.5-5.78c.16-.46.25-.95.25-1.44V8.67h8.66v1.44a4.33 4.33 0 0 0 8.67 0V8.67h8.67v1.44a4.33 4.33 0 1 0 8.66 0V8.67H65v1.44a4.33 4.33 0 0 0 8.67 0V8.67h10.1v8.66Z" fill="#000"/><path d="M49.37 53.44h-4.6v2.9h4.34c0 1.97.37 3.93 1.1 5.77H39V65h12.69c.69 1.06 1.5 2.03 2.42 2.89h-7.89v2.89H58.4a15.81 15.81 0 0 0 6.98 1.44h.02a15.89 15.89 0 1 0-13.63-24.66l-.07.1H39v2.9h11.2c-.37.93-.64 1.9-.83 2.88ZM67.6 69.08c-.51.1-1.04.17-1.56.21l-2.55-7.64a1.44 1.44 0 0 0-1.37-.98h-3.4a1.45 1.45 0 0 1-1.42-1.16l-.73-3.65 3.12-1.05c.3-.1.57-.3.74-.56l2.46-3.7h5v10.12a4.33 4.33 0 1 0 8.68 0v-1.45l.81 1.1a13 13 0 0 1-9.78 8.76Zm3.19-8.41v-9.15l.03.05 2.86 3.8v5.3a1.44 1.44 0 0 1-2.9 0ZM54.16 49.16A13 13 0 0 1 78 56.34l-6.07-8.1a1.45 1.45 0 0 0-1.15-.57H62.1a1.44 1.44 0 0 0-1.2.64l-2.61 3.92-3.87 1.29a1.44 1.44 0 0 0-.96 1.65l.98 4.9a4.34 4.34 0 0 0 4.25 3.49h2.37l1.87 5.61a13 13 0 0 1-8.78-20.01ZM20.22 60.67a5.78 5.78 0 1 0 0 11.55 5.78 5.78 0 0 0 0-11.55Zm0 8.66a2.89 2.89 0 1 1 0-5.77 2.89 2.89 0 0 1 0 5.77ZM26.54 45.1l-2.85 2.28a5.78 5.78 0 1 0 1.8 2.25l2.86-2.28a1.44 1.44 0 0 0-1.8-2.26Zm-6.32 4.01c.36 0 .72.07 1.05.2l-.94.75-.85-.85c.24-.06.49-.1.74-.1Zm0 5.78a2.88 2.88 0 0 1-2.79-3.63l1.77 1.76a1.44 1.44 0 0 0 1.92.1l1.95-1.55a2.87 2.87 0 0 1-2.85 3.32Z" fill="#000"/><path d="M62.11 54.89H65v2.89h-2.89v-2.9ZM33.22 47.67h2.9v2.89h-2.9v-2.9ZM33.22 53.44h8.67v2.9h-8.67v-2.9ZM46.22 39a5.77 5.77 0 0 0 5.27-8.14l2.86-2.29a1.44 1.44 0 0 0-1.8-2.25l-2.86 2.28A5.78 5.78 0 1 0 46.22 39Zm0-8.67c.36 0 .72.07 1.05.2l-.94.76-.85-.86c.24-.06.49-.1.74-.1Zm-2.79 2.15 1.77 1.76a1.44 1.44 0 0 0 1.92.11l1.95-1.56a2.89 2.89 0 1 1-5.64-.31ZM59.22 28.89h2.9v2.89h-2.9v-2.9ZM65 28.89h13v2.89H65v-2.9ZM59.22 34.67h11.56v2.89H59.22v-2.9ZM73.67 34.67H78v2.89h-4.33v-2.9ZM33.22 62.11h2.9V65h-2.9v-2.89ZM33.22 67.89h10.11v2.89h-10.1v-2.9Z" fill="#000"/></svg>