<svg width="28" height="29" fill="none" xmlns="http://www.w3.org/2000/svg"><path d="M11.48 17.68a5.55 5.55 0 0 0 3.58-8.66l-2.63-3.77A3.5 3.5 0 0 0 8.45 3.9a3.5 3.5 0 0 0-2.43 3.43v.05a6.93 6.93 0 0 1-2.12 5.1 3.5 3.5 0 0 0-.7 4.14 3.5 3.5 0 0 0 3.76 1.87l4.52-.82ZM15.76 7.34a2.7 2.7 0 0 0 .94 2.1c.6.54 1.4.84 2.25.86a3.5 3.5 0 0 0 2.3-.75 2.7 2.7 0 0 0 1.04-2.05c.04-1.58-1.4-2.91-3.2-2.96a3.27 3.27 0 0 0-3.14 1.89c-.11.28-.18.6-.19.91Z" fill="#FFBD54"/><path d="M16.72 12.95c-.7 1.71.3 3.76 2.26 4.56 1.95.8 4.11.07 4.82-1.64.7-1.71-.3-3.76-2.26-4.57-1.95-.8-4.1-.06-4.82 1.65ZM13.64 17.95c-.2.23-.35.48-.46.75-.52 1.24-.1 2.84 1.1 3.88.69.6 1.55.93 2.4.94.91 0 1.71-.34 2.27-.98a2.9 2.9 0 0 0 .64-2.38 3.75 3.75 0 0 0-1.28-2.25c-1.46-1.27-3.56-1.25-4.67.04ZM11.35 24.66c1.36-.82 1.71-2.74.79-4.29-.93-1.54-2.8-2.13-4.16-1.3-.5.3-.85.74-1.07 1.26-.37.9-.3 2.04.3 3.02.92 1.54 2.78 2.13 4.14 1.3Z" fill="#FFBD54"/></svg>