<svg width="72" height="78" fill="none" xmlns="http://www.w3.org/2000/svg"><path d="M30.86 25.71v-3.33a3.86 3.86 0 0 1 1.39-2.97l5.53-4.61a2.83 2.83 0 0 1 4.65 2.17v5.06a5.79 5.79 0 0 1-1.7 4.1l-2.16 2.16v5.52a3.53 3.53 0 0 1-1.95 3.17l-3.2 1.6h-2.56V25.7ZM12.86 25.71v-3.33a3.86 3.86 0 0 0-1.4-2.97L5.94 14.8a2.83 2.83 0 0 0-4.64 2.17v5.06a5.79 5.79 0 0 0 1.69 4.1l2.16 2.16v5.52a3.54 3.54 0 0 0 1.96 3.17l3.19 1.6h2.57V25.7Z" fill="#E08122"/><path d="M32.14 31.29a1.29 1.29 0 0 1-1.03-2.06L36 22.7v-2.14a1.29 1.29 0 0 1 2.57 0v2.57c0 .28-.09.55-.26.77l-5.14 6.86a1.28 1.28 0 0 1-1.03.52ZM11.57 31.29a1.28 1.28 0 0 1-1.03-.52L5.4 23.91c-.17-.22-.26-.49-.26-.77v-2.57a1.29 1.29 0 1 1 2.57 0v2.14l4.89 6.52a1.29 1.29 0 0 1-1.03 2.06Z" fill="#BF6E1D"/><path d="m33.38 69.79-1.24.92.68.23 1.42.47A2.57 2.57 0 0 1 36 73.85v2H7.71V73.6a2.57 2.57 0 0 1 1.43-2.3l1.15-.58-2.36-2.35a5.14 5.14 0 0 1-1.5-3.63V60.2a2.57 2.57 0 0 1 .75-1.82l3.1-3.1 2.58-6.43h18l2.57 6.43 3.1 3.1a2.57 2.57 0 0 1 .76 1.82v4.08a5.14 5.14 0 0 1-2.06 4.11l-1.85 1.39Z" fill="#FD9226"/><path d="M30.86 48.86h-18l-2.57-6.43V30.28c0-1.28.5-2.5 1.4-3.4l.03-.03a4.82 4.82 0 0 1 2.73-1.36l.13-.02c4.83-.7 9.73-.7 14.55 0l.14.02c1.03.14 1.99.62 2.72 1.36l.03.02c.9.9 1.4 2.13 1.4 3.41v12.15l-2.56 6.43Z" fill="#FD9226"/><path d="M26.67 52.71a4.19 4.19 0 0 1-3.48-1.86l-1.33-2-1.33 2a4.19 4.19 0 0 1-7.67-2.32v-1.91a4.19 4.19 0 0 1 4.18-4.2h9.63a4.19 4.19 0 0 1 4.19 4.2v1.9a4.19 4.19 0 0 1-4.19 4.2Z" fill="#985713"/><path d="M14.14 72v3.86h-2.57V72.3L10.42 70a1.3 1.3 0 0 1-.13-.57V63a1.29 1.29 0 0 1 2.57 0v6.12l1.15 2.3c.09.18.13.38.13.58ZM20.57 63v6.43c0 .2-.05.4-.13.57l-1.15 2.3v3.56H16.7V72c0-.2.05-.4.14-.58l1.15-2.3V63a1.29 1.29 0 1 1 2.57 0ZM33.43 63v6.43c0 .2-.05.4-.14.57l-.47.94-.68 1.36v3.56h-2.57V72c0-.2.05-.4.14-.58l1.15-2.3V63a1.29 1.29 0 0 1 2.57 0ZM27 72v3.86h-2.57V72.3L23.28 70a1.3 1.3 0 0 1-.14-.57V63a1.29 1.29 0 1 1 2.57 0v6.12l1.15 2.3c.1.18.14.38.14.58Z" fill="#E08122"/><path d="M21.86 47.57a2.57 2.57 0 1 0 0-5.14 2.57 2.57 0 0 0 0 5.14Z" fill="#70400E"/><path d="M16.71 37.77a1.77 1.77 0 1 0 0-3.54 1.77 1.77 0 0 0 0 3.54ZM27.48 37.77a1.77 1.77 0 1 0 0-3.54 1.77 1.77 0 0 0 0 3.54Z" fill="#985713"/><path d="M52.71 47.57V72a5.14 5.14 0 0 1-10.28 0v-5.46a.96.96 0 0 0-.97-.97h-9.32a1.29 1.29 0 0 1 0-2.57h9.32A3.54 3.54 0 0 1 45 66.54V72a2.57 2.57 0 1 0 5.14 0V47.57a1.29 1.29 0 1 1 2.57 0Z" fill="#DBDBDB"/><path d="M51.43 25.71A5.15 5.15 0 0 1 47.6 24a1.29 1.29 0 0 1 1.91-1.71A2.57 2.57 0 1 0 51.43 18a1.29 1.29 0 0 1-1.29-1.29V5.14a1.29 1.29 0 0 1 2.57 0V15.6a5.14 5.14 0 0 1-1.28 10.12Z" fill="#878787"/><path d="M66.86 6.43H50.14a2.57 2.57 0 1 1 0-5.14h16.72v5.14Z" fill="#CBCBCB"/><path d="M61.71 6.43h5.15V70.7H61.7V6.43Z" fill="#985713"/><path d="M70.71 75.86H57.86a7.2 7.2 0 0 1 3.2-6l.65-.43h5.15l.64.43a7.2 7.2 0 0 1 3.21 6Z" fill="#70400E"/><path d="M45 51.43h2.57V54H45v-2.57ZM45 56.57h2.57v5.14H45v-5.14Z" fill="#C0F5F9"/><path d="M23.14 61.71h10.29v5.15H23.14V61.7Z" fill="#6B9777"/><path d="M51.43 30.86a1.29 1.29 0 0 1-1.29-1.29v-5.14a1.29 1.29 0 1 1 2.57 0v5.14a1.29 1.29 0 0 1-1.28 1.29Z" fill="#CBCBCB"/><path d="M52.71 47.57v1.12c-.84.22-1.72.22-2.57 0v-1.12a1.29 1.29 0 1 1 2.57 0Z" fill="#C3C3C3"/><path d="M61.71 6.43h5.15V9H61.7V6.43Z" fill="#70400E"/><path d="M33.43 63h1.28v2.57h-1.28V63Z" fill="#C3C3C3"/><path d="M46.29 29.57h10.28v12.86a5.14 5.14 0 1 1-10.28 0V29.57Z" fill="#EBEBEB"/><path d="M51.43 47.57a5.14 5.14 0 0 1-5.14-5.14V34.7h10.28v7.72a5.14 5.14 0 0 1-5.14 5.14Z" fill="#C0F5F9"/><path d="M54 39.86h-1.29v-1.29h-2.57v1.29h-1.28v2.57h1.28v1.28h2.57v-1.28H54v-2.57Z" fill="#85BC94"/><path d="M46.29 34.71h10.28V36H46.3v-1.29Z" fill="#B8EAEE"/><path d="M16.71 37.77a1.77 1.77 0 1 0 0-3.54 1.77 1.77 0 0 0 0 3.54ZM27.48 37.77a1.77 1.77 0 1 0 0-3.54 1.77 1.77 0 0 0 0 3.54Z" fill="#000"/><path d="M3.86 28.82v5a4.8 4.8 0 0 0 2.66 4.3L9 39.38v3.06c0 .16.03.32.1.48l2.37 5.95-2.28 5.7-2.92 2.92a3.83 3.83 0 0 0-1.13 2.73v4.52a6.39 6.39 0 0 0 1.89 4.54l1.1 1.11a3.83 3.83 0 0 0-1.7 3.2v2.28a1.29 1.29 0 0 0 1.28 1.28H36a1.29 1.29 0 0 0 1.29-1.28v-2a3.85 3.85 0 0 0-2.42-3.58l1.13-.85a6.46 6.46 0 0 0 2.44-3.86h3.02a.97.97 0 0 1 .97.97V72a5.14 5.14 0 0 0 10.28 0V48.73a6.44 6.44 0 0 0 5.15-6.3V29.57a1.29 1.29 0 0 0-1.29-1.28h-3.86v-2.74a5.14 5.14 0 0 0 0-9.96V7.71h7.72v61.03l-.08.05a8.48 8.48 0 0 0-3.78 7.07 1.29 1.29 0 0 0 1.29 1.28H70.7A1.29 1.29 0 0 0 72 75.86a8.48 8.48 0 0 0-3.78-7.07l-.08-.05V1.29A1.29 1.29 0 0 0 66.86 0H50.14a3.86 3.86 0 1 0 0 7.71v9A1.29 1.29 0 0 0 51.43 18a2.57 2.57 0 1 1-1.92 4.29A1.28 1.28 0 1 0 47.6 24c.67.76 1.56 1.3 2.54 1.55v2.74H46.3A1.29 1.29 0 0 0 45 29.57v12.86a6.44 6.44 0 0 0 5.14 6.3V72A2.57 2.57 0 0 1 45 72v-5.46A3.54 3.54 0 0 0 41.46 63h-2.89v-2.8a3.83 3.83 0 0 0-1.13-2.72l-2.92-2.92-2.28-5.7 2.38-5.95c.06-.16.1-.32.1-.48v-3.06l2.47-1.24a4.8 4.8 0 0 0 2.67-4.32v-5l1.78-1.78a7.02 7.02 0 0 0 2.07-5v-5.06a4.12 4.12 0 0 0-6.75-3.16l-5.54 4.62a5.13 5.13 0 0 0-1.85 3.95v1.86l-.11-.02-.15-.03a52.8 52.8 0 0 0-14.92 0l-.12.03c-.04 0-.08 0-.13.02v-1.86a5.13 5.13 0 0 0-1.85-3.95L6.75 13.8A4.13 4.13 0 0 0 .31 15.4c-.2.5-.31 1.03-.31 1.57v5.06a7.02 7.02 0 0 0 2.07 5l1.79 1.79Zm62.93 42.11a5.9 5.9 0 0 1 2.5 3.64h-10a5.9 5.9 0 0 1 2.49-3.64l.32-.22h4.37l.32.22ZM63 68.14V7.71h2.57v60.43H63Zm-12.86-63a1.29 1.29 0 1 1 0-2.57h15.43v2.57H50.14Zm-2.57 25.72h7.72v2.57h-7.72v-2.57Zm0 11.57V36h7.72v6.43a3.86 3.86 0 0 1-7.72 0Zm-36 32.14H9v-.98a1.28 1.28 0 0 1 .71-1.15l1.15-.58c.13-.06.26-.15.36-.26l.35.7v2.27Zm19.29-5.45-1.15 2.3c-.1.18-.14.38-.14.58v2.57H27V72c0-.2-.05-.4-.14-.58l-1.15-2.3v-.98h5.15v.98Zm0-3.55H25.7V63h5.15v2.57Zm3.85 9h-2.57V72.3l.1-.2 1.6.53a1.29 1.29 0 0 1 .87 1.22v.72Zm-.25-7.2-1.03.77v-2.57h2.35a3.87 3.87 0 0 1-1.32 1.8ZM32.52 56.2l3.1 3.1a1.28 1.28 0 0 1 .38.92V63h-2.57v-1.29a1.29 1.29 0 0 0-1.29-1.28h-7.71a1.29 1.29 0 0 0-1.29 1.28v7.72c0 .2.05.4.14.57l1.15 2.3v2.27h-5.14V72.3l1.15-2.3c.08-.17.13-.37.13-.57V63A1.29 1.29 0 1 0 18 63v6.12l-1.15 2.3c-.09.18-.14.38-.14.58v2.57h-2.57V72c0-.2-.04-.4-.13-.58l-1.15-2.3V63a1.29 1.29 0 0 0-2.57 0v5.9l-1.45-1.45a3.88 3.88 0 0 1-1.13-2.72V60.2a1.28 1.28 0 0 1 .38-.91l3.1-3.1c.13-.13.22-.28.29-.44l1.45-3.63a5.47 5.47 0 0 0 8.67-.57l.26-.39.26.4a5.47 5.47 0 0 0 8.66.56l1.45 3.63c.07.16.17.31.29.43ZM20.48 48.6l-1.02 1.54a2.9 2.9 0 0 1-5.32-1.61v-1.91a2.9 2.9 0 0 1 2.9-2.9h1.18a3.85 3.85 0 0 0 2.26 4.88Zm.1-3.6a1.29 1.29 0 1 1 2.56 0 1.29 1.29 0 0 1-2.57 0Zm4.91-1.29h1.18a2.9 2.9 0 0 1 2.9 2.9v1.92a2.9 2.9 0 0 1-5.31 1.6l-1.03-1.53a3.85 3.85 0 0 0 2.26-4.89Zm6.65-21.33a2.56 2.56 0 0 1 .93-1.98l5.53-4.61a1.56 1.56 0 0 1 2.09.1 1.55 1.55 0 0 1 .45 1.08v5.06a4.47 4.47 0 0 1-1.31 3.18l-2.17 2.17c-.24.24-.37.56-.37.9v5.53a2.24 2.24 0 0 1-1.25 2.02l-1.33.66v-6.2c0-.47-.05-.92-.15-1.37l3.75-5c.17-.23.26-.5.26-.78v-2.57a1.29 1.29 0 1 0-2.57 0v2.14l-2.72 3.64a6.28 6.28 0 0 0-.35-.39l-.03-.02a6.11 6.11 0 0 0-.76-.64v-2.92Zm-19.53 5.4.02-.02c.54-.54 1.25-.9 2.01-1l.13-.02c4.7-.67 9.47-.67 14.17 0l.15.02c.75.11 1.45.46 2 1l.02.02a3.51 3.51 0 0 1 1.03 2.5v11.9l-.7 1.76a5.48 5.48 0 0 0-4.77-2.8h-9.63a5.48 5.48 0 0 0-4.77 2.8l-.7-1.76v-11.9a3.51 3.51 0 0 1 1.04-2.5ZM2.57 16.98a1.55 1.55 0 0 1 2.54-1.2l5.54 4.62a2.56 2.56 0 0 1 .92 1.98v2.92c-.27.2-.52.4-.76.64l-.02.02-.35.39L7.7 22.7v-2.14a1.29 1.29 0 1 0-2.57 0v2.57c0 .28.1.55.26.77l3.75 5c-.1.46-.15.91-.15 1.37v6.21l-1.33-.66a2.24 2.24 0 0 1-1.24-2.02V28.3a1.29 1.29 0 0 0-.38-.91L3.9 25.2a4.47 4.47 0 0 1-1.32-3.18v-5.06Z" fill="#000"/><path d="M52.71 43.71v-1.28H54v-2.57h-1.29v-1.29h-2.57v1.29h-1.28v2.57h1.28v1.28h2.57ZM45 51.43h2.57V54H45v-2.57ZM45 56.57h2.57v5.14H45v-5.14Z" fill="#000"/></svg>