<svg width="78" height="77" fill="none" xmlns="http://www.w3.org/2000/svg"><path d="M76.22 1.28v44.36l-1.29 2.02 1.29 2.72v9.96l-1.29 1.83 1.29 1.48v12.07h-30.8l-2.67-.97-2.47.97H1.78V1.28h74.44Z" fill="#3775A4"/><path d="m76.22 45.64-.8 2.2.8 2.54v9.96l-.97 1.63.97 1.68v6.93l-4.87 2.9a18.38 18.38 0 0 1-8.8 2.24H45.41l-2.75-.8-2.39.8h-2.56l-2.83-4.24c-1.5-2.26-2.3-4.91-2.3-7.62v-3.22c0-1.9-.45-3.77-1.3-5.47l-1.27-2.55-2.57-8.99-3.85-5.13-6.42 2.57H12.7a1.93 1.93 0 0 1 0-3.85h1.93l7.7-3.85V30.8H6.92v-5.53a2.57 2.57 0 0 1 2.14-2.53l5.56-.92 2.56-2.57 7.7-2.57-.31-.95a8.32 8.32 0 0 1 .16-5.73l1.44-3.58L36.43 23.1l3.95 4.94A28.37 28.37 0 0 0 56.6 38.05l3.94.85a19 19 0 0 0 8.26-.07l7.43-1.71v8.52Z" fill="#2A597C"/><path d="m39 44.92-5.25-5.25 2.6-2.55 5.27 5.29-2.51 2.56-.11-.05Z" fill="#DBDBDB"/><path d="m39 44.92 6.42 5.13 2.56-3.85-6.41-3.85L39 44.92Z" fill="#EBEBEB"/><path d="M76.22 45.64v4.74a81.16 81.16 0 0 1-24.08.57l-6.72-.9 2.56-3.85.94.14a80.09 80.09 0 0 0 27.3-.7Z" fill="#EBEBEB"/><path d="M45.79 41.15a33.57 33.57 0 0 0-5.3 13.87l-.2 1.45h3.84l.34-.85c1.48-3.7 3.5-7.15 5.98-10.26l.34-.42a3.07 3.07 0 0 0 .52-2.89l-.06-.17a3.06 3.06 0 0 0-5.46-.73ZM76.22 60.34v3.31a14.08 14.08 0 0 1-10.36 5.94 37.03 37.03 0 0 1-21.07-4.5 1.28 1.28 0 0 1 1.25-2.26 34.72 34.72 0 0 0 5.77 2.54c.75-1.8 1.05-3.75.85-5.68l-.37-3.74c-.32-3.2.48-6.4 2.26-9.09l2.63-3.94a1.29 1.29 0 0 1 2.14 1.43l-2.63 3.94a11.37 11.37 0 0 0-1.85 7.41l.38 3.73c.22 2.27-.1 4.55-.94 6.67 1.4.35 2.81.61 4.24.8a11.67 11.67 0 0 0 .89-7.03l-.68-3.69a13.94 13.94 0 0 1 1.5-9.25l2.29-4.14a1.28 1.28 0 0 1 2.25 1.24l-2.3 4.15a11.36 11.36 0 0 0-1.22 7.54l.68 3.69c.48 2.58.23 5.25-.72 7.7a34.79 34.79 0 0 0 5.1-.15c.8-2.35.84-4.9.1-7.27l-1.11-3.58c-.96-3.07-.82-6.38.39-9.36l1.78-4.4a1.28 1.28 0 1 1 2.37.97l-1.78 4.4a11.37 11.37 0 0 0-.31 7.63l1.11 3.58c.73 2.34.84 4.83.33 7.22a11.45 11.45 0 0 0 3.6-2.4 11.1 11.1 0 0 0-.1-6.35l-1.08-3.47c-.93-2.98-.79-6.2.4-9.1l1.21-2.97a1.28 1.28 0 1 1 2.38.98l-1.22 2.97a10.88 10.88 0 0 0-.32 7.36l1.09 3.47c.37 1.2.58 2.44.61 3.7.15-.03.3-.03.46 0Z" fill="#DBDBDB"/><path d="M35.15 1.28h2.57V7.7h-2.57V1.28ZM17.18 1.28h2.57v7.7h-2.57v-7.7ZM42.85 1.28h2.57v3.85h-2.57V1.28ZM50.55 1.28h2.57V7.7h-2.57V1.28ZM58.25 1.28h2.57v3.85h-2.57V1.28ZM67.23 1.28h2.57V7.7h-2.57V1.28ZM28.73 71.87h2.57v3.73h-2.57v-3.73ZM21.03 69.3h2.57v6.3h-2.57v-6.3ZM13.33 71.87h2.57v3.73h-2.57v-3.73ZM1.9 64.17h3.73v2.56H1.9v-2.56ZM1.9 56.47h6.3v2.56H1.9v-2.56ZM1.9 48.77h3.73v2.56H1.9v-2.56ZM1.9 8.98h3.73v2.57H1.9V8.98ZM9.48 1.28h2.57v3.85H9.48V1.28ZM51.83 15.4h2.57v2.57h-2.57V15.4ZM56.97 15.4h10.26v2.57H56.97V15.4ZM51.83 20.53H62.1v2.57H51.83v-2.57ZM64.67 20.53h2.56v2.57h-2.56v-2.57Z" fill="#2F638B"/><path d="m40.28 56.47-2.56 2.56 2.56 3.85v12.84h5.14V62.88l1.28-3.85-2.57-2.56h-3.85ZM36.43 37.22l-2.56 2.56-5.14-3.85-2.56-5.13 3.96-3.03 1.7 2.53 4.6 6.92Z" fill="#EBEBEB"/><path d="M31.82 30.3a4.01 4.01 0 0 1-3.33 1.78H26.8l-.64-1.28 3.96-3.03 1.7 2.53Z" fill="#DADADA"/><path d="M28.41 21.82h-5.25a5.13 5.13 0 0 0-3.63 1.5l-2.35 2.35-5.67.8A3.85 3.85 0 0 0 8.2 30.3v.51h19.97a4.01 4.01 0 0 0 3.89-3.04l.24-.96a4.01 4.01 0 0 0-3.89-4.98Z" fill="#EBEBEB"/><path d="M12.7 37.22h1.92l7.7-3.85v-.64a3.2 3.2 0 1 1 6.41 0v3.68l-11.55 4.66H12.7a1.92 1.92 0 1 1 0-3.85Z" fill="#DBDBDB"/><path d="M76.22 0H1.78A1.28 1.28 0 0 0 .5 1.28v74.44A1.28 1.28 0 0 0 1.78 77h74.44a1.28 1.28 0 0 0 1.28-1.28V1.28A1.28 1.28 0 0 0 76.22 0ZM39.07 55.86l-2.26 2.27a1.28 1.28 0 0 0-.16 1.62L39 63.27v11.16h-.6l-2.44-3.66a12.42 12.42 0 0 1-2.1-6.91v-3.22c0-2.1-.48-4.17-1.42-6.05l-1.22-2.44-2.54-8.87c-.04-.15-.11-.3-.2-.42l-3.05-4.05 3.14-1.4 4.45 3.35 5.07 5.07.03.02.08.07 2.7 2.16a34.84 34.84 0 0 0-1.68 6.76l-.15 1.02Zm-9.1-23.78h.71l4.03 5.04-.96.97-3.73-2.8v-2.56c0-.22-.02-.43-.05-.65Zm1.08-5.6-.24.97a2.72 2.72 0 0 1-2.19 2.03 4.48 4.48 0 0 0-6.23.04H9.6a2.58 2.58 0 0 1 2.09-1.77l5.67-.81c.28-.04.53-.17.73-.37l2.35-2.34a3.88 3.88 0 0 1 2.72-1.13h5.25a2.72 2.72 0 0 1 2.64 3.39Zm-8.16 8.03a1.28 1.28 0 0 0 .71-1.14v-.64a1.93 1.93 0 0 1 3.85 0v2.37l-10.54 4.68H12.7a.64.64 0 0 1 0-1.28h1.93c.2 0 .4-.05.57-.14l7.7-3.85Zm12.8 5.27.74-.75 3.32 3.32-.75.75-3.32-3.32Zm8.51 22.7c-.04.13-.07.27-.07.4v11.55h-2.56V62.88c0-.25-.08-.5-.22-.7l-1.98-2.98 1.44-1.45h2.8l1.62 1.63-1.03 3.1Zm-.92-7.33-.02.03h-1.5a32.48 32.48 0 0 1 5.1-13.32 1.78 1.78 0 0 1 3.17.42l.06.18a1.78 1.78 0 0 1-.3 1.67l-.34.43a41.77 41.77 0 0 0-6.17 10.59ZM40.92 44.8l.85-.84.69.41-.57 1.2-.97-.77Zm9.28 3.01c1.18.16 2.37.29 3.57.39-.26.5-.5 1.03-.69 1.56a79.6 79.6 0 0 1-.77-.1l-3.1-.4c.32-.5.65-.97.99-1.45Zm-4.54 8.28c.61-1.52 1.32-3 2.11-4.44l4.2.56.44.06c-.2 1.21-.24 2.45-.12 3.68l.37 3.73c.2 1.94-.1 3.89-.85 5.68a34.7 34.7 0 0 1-5.11-2.18v-.1l1.22-3.65a1.28 1.28 0 0 0-.31-1.31l-1.97-1.97.02-.06Zm29.27 18.33h-2.69l2.7-1.6v1.6Zm0-4.58-4.22 2.5a17.15 17.15 0 0 1-8.17 2.08H46.7v-8.37a37 37 0 0 0 19.16 3.53c3.46-.29 6.7-1.84 9.07-4.37v4.63ZM55.22 59.43l-.38-3.73c-.1-1.05-.06-2.11.13-3.15 1.19.11 2.38.2 3.56.25-.08 1.13 0 2.27.2 3.38l.68 3.7c.43 2.37.12 4.82-.9 7.01a34.4 34.4 0 0 1-4.23-.8c.84-2.1 1.16-4.4.94-6.66Zm.51-9.39c.25-.57.55-1.12.9-1.65.95.05 1.9.07 2.87.08a13.9 13.9 0 0 0-.58 1.77c-1.06-.04-2.12-.1-3.19-.2Zm6.01 2.83c.99 0 1.97-.02 2.96-.06.06 1.12.26 2.23.6 3.3l1.11 3.58c.74 2.37.7 4.92-.1 7.27l-.66.07c-1.48.12-2.96.15-4.44.09.95-2.46 1.2-5.13.72-7.71l-.68-3.7c-.17-.93-.23-1.9-.16-2.85h.65Zm-.17-2.57c.2-.64.46-1.27.77-1.87.94-.03 1.88-.08 2.83-.14-.18.64-.3 1.29-.4 1.94a70.7 70.7 0 0 1-3.2.07Zm9.64 1.96c.1.57.23 1.13.4 1.67l1.09 3.47c.64 2.06.67 4.26.09 6.34a11.33 11.33 0 0 1-3.6 2.41c.51-2.4.4-4.88-.33-7.22l-1.11-3.58a11.3 11.3 0 0 1-.5-2.69 73.8 73.8 0 0 0 3.96-.4Zm-3.82-2.18c.12-.7.3-1.38.55-2.04 1.09-.12 2.18-.26 3.26-.42-.12.68-.18 1.38-.2 2.08-1.2.15-2.4.28-3.6.38Zm7.54 5.88-.87-2.8c-.13-.41-.23-.84-.31-1.27l1.18-.2v4.27Zm0-6.88-1.34.24c.04-.74.15-1.46.34-2.17l1-.2v2.13Zm0-7.9-.04-.02a1.28 1.28 0 0 0-1.67.7L72 44.83c0 .02 0 .04-.02.06-.97.17-1.96.31-2.95.44l.82-2a1.28 1.28 0 1 0-2.38-.97l-1.33 3.28c-.79.07-1.57.12-2.35.16l.98-1.77a1.28 1.28 0 0 0-2.25-1.24l-1.72 3.1c-.83.02-1.67.01-2.5 0l1.02-1.54a1.28 1.28 0 0 0-2.14-1.43l-1.88 2.83c-1.1-.07-2.2-.17-3.3-.3a4.33 4.33 0 0 0 .52-3.8l-.05-.18a4.35 4.35 0 0 0-7.75-1.03c-.36.55-.71 1.1-1.05 1.68l-1.3-.79-4.98-4.97-5.05-6.31c.46-.59.79-1.26.96-1.98l.24-.96a5.3 5.3 0 0 0-5.13-6.58h-5.25a6.37 6.37 0 0 0-4.54 1.88l-2.04 2.05-5.26.75a5.12 5.12 0 0 0-3.12 1.7v-1.64a1.28 1.28 0 0 1 1.07-1.26l5.56-.93c.26-.04.5-.17.7-.36l2.35-2.35 7.4-2.47a1.28 1.28 0 0 0 .82-1.62l-.32-.96a7.06 7.06 0 0 1 .15-4.84l.48-1.22 8.93 14.51c.03.05.06.1.1.13l3.94 4.94A29.73 29.73 0 0 0 56.32 39.3l3.94.84c2.91.62 5.92.6 8.81-.07l5.86-1.35v2.45Zm0-5.08-6.43 1.48c-2.53.58-5.16.6-7.7.06l-3.94-.84a27.16 27.16 0 0 1-15.48-9.57l-3.9-4.87L27.27 5.74a1.28 1.28 0 0 0-2.28.2l-1.44 3.58a9.63 9.63 0 0 0-.28 6.35l-6.48 2.16c-.2.07-.36.17-.5.31L14 20.62l-5.15.86a3.84 3.84 0 0 0-3.22 3.8v5.52a1.28 1.28 0 0 0 1.29 1.28h14.11v.5l-6.72 3.35H12.7a3.2 3.2 0 0 0 0 6.42h4.62l.04-.01.09-.02h.05a1.24 1.24 0 0 0 .12-.05l.05-.01 5.5-2.2 3.12 4.15 2.5 8.76c.03.08.05.15.09.22l1.28 2.55a11 11 0 0 1 1.15 4.9v3.22c0 2.96.88 5.86 2.52 8.33l1.5 2.24H31.3v-2.56h-2.57v2.56H23.6V69.3h-2.57v5.13H15.9v-2.56h-2.57v2.56H3.07v-7.7h2.56v-2.56H3.07v-5.14H8.2v-2.56H3.07v-5.14h2.56v-2.56H3.07V11.55h2.56V8.98H3.07V2.57h6.41v2.56h2.57V2.57h5.13v6.41h2.57V2.57h15.4V7.7h2.57V2.57h5.13v2.56h2.57V2.57h5.13V7.7h2.57V2.57h5.13v2.56h2.57V2.57h6.41V7.7h2.57V2.57h5.13V36.1Z" fill="#000"/><path d="M51.83 15.4h2.57v2.57h-2.57V15.4ZM56.97 15.4h10.26v2.57H56.97V15.4ZM51.83 20.53H62.1v2.57H51.83v-2.57ZM64.67 20.53h2.56v2.57h-2.56v-2.57Z" fill="#000"/></svg>