<svg width="68" height="77" fill="none" xmlns="http://www.w3.org/2000/svg"><path d="M51.52 41.84V35.5H33.78v6.34a5.07 5.07 0 0 0-5.07 5.07v22.81a5.07 5.07 0 0 0 5.07 5.07h17.74a5.07 5.07 0 0 0 5.07-5.07V46.91a5.07 5.07 0 0 0-5.07-5.07Z" fill="#6B9777"/><path d="M56.6 25.36v7.6a2.54 2.54 0 0 1-2.54 2.54H31.24a2.53 2.53 0 0 1-2.53-2.53v-7.61a2.53 2.53 0 0 1 2.53-2.53h22.82a2.54 2.54 0 0 1 2.53 2.53Z" fill="#CBCBCB"/><path d="M28.7 49.44h27.9V67.2H28.7V49.44Z" fill="#E4E4E2"/><path d="M44.55 59.58h-3.8a1.9 1.9 0 0 0 0 3.8h3.8a1.9 1.9 0 0 0 0-3.8ZM42.65 57.05a1.27 1.27 0 0 1-1.27-1.27v-1.27a1.27 1.27 0 0 1 2.54 0v1.27a1.27 1.27 0 0 1-1.27 1.27ZM38.85 58.32a1.27 1.27 0 0 1-1.27-1.27v-1.27a1.27 1.27 0 0 1 2.53 0v1.27a1.27 1.27 0 0 1-1.26 1.27ZM46.45 58.32a1.27 1.27 0 0 1-1.27-1.27v-1.27a1.27 1.27 0 1 1 2.54 0v1.27a1.27 1.27 0 0 1-1.27 1.27Z" fill="#6B9777"/><path d="M1.27 76.06a1.27 1.27 0 0 1-1.14-1.83L8 58.33a1.27 1.27 0 1 1 2.27 1.12L2.4 75.35a1.27 1.27 0 0 1-1.13.71Z" fill="#C3C3C3"/><path d="M56.6 26.63v2.53h-8.88a1.27 1.27 0 1 1 0-2.53h8.87ZM42.65 29.16H40.1a1.27 1.27 0 1 1 0-2.53h2.54a1.27 1.27 0 0 1 0 2.53Z" fill="#E4E4E2"/><path d="M64.2 54.51v-5.07H54.06v5.07a2.53 2.53 0 0 0-2.54 2.54v15.21a2.54 2.54 0 0 0 2.54 2.53H64.2a2.54 2.54 0 0 0 2.53-2.53V57.05a2.54 2.54 0 0 0-2.53-2.54Z" fill="#A45E14"/><path d="M65.78 41.84h-13.3a.95.95 0 0 0-.96.95v5.7c0 .53.43.95.95.95h13.31c.53 0 .95-.42.95-.95v-5.7a.95.95 0 0 0-.95-.95Z" fill="#A8A8A8"/><path d="M51.52 59.58h15.21v10.14h-15.2V59.58Z" fill="#F3AF3E"/><path d="M66.73 63.39v2.53h-3.8a1.27 1.27 0 1 1 0-2.53h3.8ZM57.86 65.92h-1.27a1.27 1.27 0 1 1 0-2.53h1.27a1.27 1.27 0 0 1 0 2.53Z" fill="#EA9D2D"/><path d="M33.78 35.5h17.74v2.54H33.78V35.5Z" fill="#5E8569"/><path d="M54.06 49.44H64.2v2.54H54.06v-2.54Z" fill="#834B10"/><path d="M35.01 22.83 29.22 34.5a2.53 2.53 0 0 1-.51-1.53v-7.61a2.53 2.53 0 0 1 2.53-2.53h3.77Z" fill="#B9B9B9"/><path d="m26 13.46 9.08 4.5-17.17 34.67a1.9 1.9 0 0 1-2.55.86l-5.68-2.82a1.9 1.9 0 0 1-.86-2.55L26 13.46Z" fill="#EBEBEB"/><path d="m21.55 22.43 9.08 4.5-12.72 25.7a1.9 1.9 0 0 1-2.55.86l-5.68-2.82a1.9 1.9 0 0 1-.86-2.55l12.73-25.7Z" fill="#F388A2"/><path d="m21 35.05 1.12-2.27 4.54 2.26-1.12 2.27-4.55-2.26ZM18.74 39.6l1.13-2.27 4.54 2.25-1.13 2.27-4.54-2.25ZM16.48 44.14l1.13-2.27 4.55 2.26-1.13 2.27-4.55-2.26ZM14.23 48.69l1.13-2.28 4.54 2.26-1.13 2.27-4.54-2.25Z" fill="#CF748A"/><path d="M9.15 58.87a2.54 2.54 0 0 1-1.14-3.4l2.26-4.54 4.54 2.25-2.26 4.55a2.54 2.54 0 0 1-3.4 1.14Z" fill="#4799CF"/><path d="M24.94 28.3a1.27 1.27 0 0 1-1.14-1.84l9.55-19.25a1.27 1.27 0 0 1 2.28 1.13l-9.55 19.25a1.27 1.27 0 0 1-1.14.7Z" fill="#F3AF3E"/><path d="m29.41 15.15-5.6 11.31a1.27 1.27 0 1 0 2.27 1.13l5.6-11.3-2.27-1.14Z" fill="#EA9D2D"/><path d="m21.55 22.43 9.08 4.5-2.3 4.7-9.08-4.51 2.3-4.7Z" fill="#DA922A"/><path d="m31.07 6.06 6.82 3.39a2.54 2.54 0 0 0 2.25-4.54l-6.81-3.39a2.54 2.54 0 1 0-2.26 4.54Z" fill="#4799CF"/><path d="M65.78 50.71A2.22 2.22 0 0 0 68 48.5v-5.7a2.22 2.22 0 0 0-2.22-2.22h-13v-3.8h1.28a3.8 3.8 0 0 0 3.8-3.8v-7.61a3.8 3.8 0 0 0-3.8-3.8H34.72l1.5-3.03a1.27 1.27 0 0 0-.57-1.7l-3.4-1.69 2.81-5.67 2.27 1.13a3.8 3.8 0 1 0 3.38-6.81L33.91.4a3.8 3.8 0 1 0-3.39 6.8l2.27 1.14-2.82 5.67-3.4-1.7a1.27 1.27 0 0 0-1.7.58L7.69 47.56a3.17 3.17 0 0 0 .89 3.9l-1.72 3.47a3.8 3.8 0 0 0 .68 4.34L.14 74.23a1.27 1.27 0 1 0 2.26 1.13L9.8 60.4a3.77 3.77 0 0 0 3.87-2.09l1.72-3.46a3.13 3.13 0 0 0 2.48-.37c.5-.31.9-.76 1.17-1.29l9-18.17a3.8 3.8 0 0 0 3.2 1.75h1.27v3.93a6.35 6.35 0 0 0-5.07 6.2v22.82a6.35 6.35 0 0 0 6.34 6.34h17.74c.48 0 .97-.05 1.44-.16.35.1.72.16 1.1.16H64.2a3.8 3.8 0 0 0 3.8-3.8V57.05a3.8 3.8 0 0 0-2.53-3.59v-2.75h.31ZM31.65 4.95a1.27 1.27 0 0 1 1.12-2.27l6.82 3.38a1.27 1.27 0 1 1-1.13 2.27l-6.81-3.38Zm-.53 12.46 2.27 1.13-1.85 3.72-1.47 2.98-2.28-1.13 3.33-6.7Zm-4.55-2.25 2.27 1.13-3.32 6.7-2.27-1.13 3.32-6.7ZM11.4 57.18a1.27 1.27 0 0 1-2.27-1.12l1.69-3.41 2.27 1.13-1.69 3.4Zm14.1-22.72-3.4-1.68-1.13 2.27 3.4 1.68-1.13 2.28-3.4-1.7-1.12 2.28 3.4 1.69-1.13 2.27-3.4-1.69-1.13 2.27 3.4 1.69-1.12 2.27-3.4-1.69-1.13 2.27 3.4 1.7-.84 1.7a.63.63 0 0 1-.85.28l-5.68-2.82a.64.64 0 0 1-.28-.85l9.85-19.87 6.81 3.38-1.13 2.27Zm3.3-6.68-1.05 2.14-6.8-3.38L22 24.4l.13-.27 6.8 3.38-.13.27Zm2.44 6.45a1.27 1.27 0 0 1-1.27-1.26v-1.81l1.11-2.26 2.38-4.8h20.6a1.27 1.27 0 0 1 1.26 1.26v1.27h-7.6a1.27 1.27 0 0 0 0 2.53h7.6v3.8a1.27 1.27 0 0 1-1.26 1.27H31.24Zm-1.27 12.68a3.8 3.8 0 0 1 3.8-3.8 1.27 1.27 0 0 0 1.27-1.27v-5.07h15.21v11.4H29.97v-1.26Zm3.8 26.62a3.8 3.8 0 0 1-3.8-3.8v-1.27h20.28v3.8c0 .43.08.86.22 1.27h-16.7Zm16.48-16.48v8.87H29.97v-15.2H52.8v2.74a3.8 3.8 0 0 0-2.54 3.59Zm15.22 15.21a1.27 1.27 0 0 1-1.27 1.27H54.06a1.27 1.27 0 0 1-1.27-1.27v-1.27h12.68v1.27Zm0-8.87h-2.54a1.27 1.27 0 0 0 0 2.53h2.54v2.54H52.79v-7.6h12.68v2.53Zm0-5.07H52.79v-1.27a1.27 1.27 0 0 1 1.27-1.27H64.2a1.27 1.27 0 0 1 1.27 1.27v1.27Zm-10.15-5.07V50.7h7.61v2.54h-7.6Zm-2.53-5.07V43.1h12.68v5.07H52.79Z" fill="#000"/><path d="M44.55 59.58h-3.8a1.9 1.9 0 0 0 0 3.8h3.8a1.9 1.9 0 1 0 0-3.8ZM42.65 57.05a1.27 1.27 0 0 0 1.27-1.27v-1.27a1.27 1.27 0 0 0-2.54 0v1.27a1.27 1.27 0 0 0 1.27 1.27ZM40.11 57.05v-1.27a1.27 1.27 0 1 0-2.53 0v1.27a1.27 1.27 0 0 0 2.53 0ZM46.45 54.51a1.27 1.27 0 0 0-1.27 1.27v1.27a1.27 1.27 0 1 0 2.54 0v-1.27a1.27 1.27 0 0 0-1.27-1.27ZM56.6 65.92h1.26a1.27 1.27 0 0 0 0-2.53h-1.27a1.27 1.27 0 0 0 0 2.53ZM40.11 29.16h2.54a1.27 1.27 0 1 0 0-2.53H40.1a1.27 1.27 0 0 0 0 2.53Z" fill="#000"/></svg>